<svg xmlns="http://www.w3.org/2000/svg" width="297.45" height="419.877" viewBox="0 0 297.45 419.877"><path fill="#FC3" d="M27.07 386.156L0 82.536h297.45l-27.098 303.57-121.81 33.77"/><path fill="#F8DC3D" d="M148.725 394.064l98.428-27.287L270.31 107.36H148.726"/><g fill="#FFF"><path d="M148.93 209.97v37.237l45.853 10-4.322 48.293-41.53 11.21v38.743l76.34-21.158.558-6.29 9.658-98.035M224.926 142.736l-76.34-21.158v38.742l76.38 21.518"/></g><path fill="#EBEBEB" d="M149.06 209.97l-48.257 10 6.275-48.465 41.473-11.2.165.047v-38.744l-.172-.048-76.28 21.176-9.84 77.234h-.017l.006.08-.006.054h.012l3.31 37.103h.18l6.7 77.088 76.28 21.176.17-.048v-38.744l-.163.047-41.473-11.2-4.145-48.318 45.782-10"/><g fill="#131313"><path d="M201.42 15.547h-24.688l25.674 27.86v13.26h-52.883V41.14h25.67l-25.67-27.86V0h51.897M138.914 16.178V0H93.342v56.666h45.572V40.49h-26.64v-5.65h25.64V21.827h-25.64v-5.65"/></g></svg>