<svg width="1500" height="490" xmlns="http://www.w3.org/2000/svg"><title>brown mountain</title><defs><filter x="-.173" y="-.092" height="1.184" width="1.346" id="a"><feGaussianBlur stdDeviation="17.551"/></filter></defs><title>Layer 1</title><path d="M0 489.277c23.263-39.208 284.66-269.874 493.512-270.552 216.45-.71 444.014 228.42 464.488 268.963" stroke-width="5" stroke="#000" fill-rule="evenodd" fill="#5fa518"/><g fill-rule="evenodd"><path d="M.5 491.94c13.453-53.7 164.616-369.623 285.392-370.552 125.173-.972 256.77 312.846 268.608 368.375" stroke-width="5" stroke="#000" fill="#5fa518"/><path filter="url(#a)" d="M272.27 489.312c-18.512-11.872-42.366-102.414-53.886-117.8-10.8-14.427-44.564 41.85-50.408 25.683-34.336-94.966 6.896-208.675 6.896-208.675s-59.94 83.753-99.523 150.783c-63.976 108.34-67.233 151.49-67.233 151.49" fill="#3f7f00" opacity=".3"/></g><g fill-rule="evenodd"><path d="M401 490.277c26.565-51.96 325.07-357.653 563.572-358.552 247.182-.94 507.05 302.715 530.428 356.446" stroke-width="5" stroke="#000" fill="#5fa518"/><path filter="url(#a)" d="M937.67 487.735c-36.554-11.488-83.66-99.098-106.407-113.986-21.33-13.96-88.003 40.493-99.543 24.85-67.803-91.89 13.616-201.916 13.616-201.916s-118.366 81.04-196.53 145.9C422.473 447.415 416.042 489.165 416.042 489.165" fill="#3f7f00" opacity=".3"/></g><g fill-rule="evenodd"><path d="M305 489.277c17.192-22.688 210.375-156.16 364.725-156.553 159.968-.41 328.145 132.173 343.275 155.634" stroke-width="5" stroke="#000" fill="#5fa518"/><path filter="url(#a)" d="M652.315 488.167c-23.657-5.016-54.142-43.27-68.863-49.77-13.804-6.094-56.953 17.682-64.42 10.852-43.88-40.123 8.81-88.164 8.81-88.164S451.24 396.47 400.657 424.79c-81.76 45.773-85.922 64.002-85.922 64.002" fill="#3f7f00" opacity=".3"/></g><g fill-rule="evenodd"><path d="M945 484.277c13.5-48.193 165.21-331.718 286.422-332.552 125.625-.872 257.696 280.763 269.578 330.6" stroke-width="5" stroke="#000" fill="#5fa518"/><path filter="url(#a)" d="M1217.75 481.92c-18.578-10.656-42.518-91.913-54.08-105.72-10.84-12.948-44.724 37.557-50.59 23.048-34.46-85.227 6.92-187.274 6.92-187.274s-60.156 75.163-99.88 135.318c-64.207 97.232-67.476 135.954-67.476 135.954" fill="#3f7f00" opacity=".3"/></g></svg>