<svg xmlns="http://www.w3.org/2000/svg" width="500mm" height="500mm" viewBox="0 0 1771.6535 1771.6535"><rect width="155.123" height="366.655" x="808.265" y="1312.065" ry=".82" fill="#504416"/><path d="M1322.088 1192.06a581.47 622.07-85.928 0 1-872.523-10.315l437.622-409.338z" fill="#1c4200"/><path d="M1252.286 951.227a488.435 522.54-85.928 0 1-732.92-8.665L886.97 598.718z" fill="#2d5016"/><path d="M1217.385 742.73a441.917 472.774-85.928 0 1-663.117-7.84L886.86 423.795z" fill="#276200"/><path d="M1182.484 560.05a353.184 422.918-88.486 0 1-593.315-6.264L886.75 305.208z" fill="#338000"/><path d="M1077.782 390.705a273.586 333.533-1.375 0 1-383.91-5.914L886.425 150.1z" fill="#5ba300"/></svg>