<svg width="1056" height="286.866" xmlns="http://www.w3.org/2000/svg"><title>Mt. Rainier</title><title>Layer 1</title><path fill="#8d8d8d" fill-rule="evenodd" stroke-opacity=".661" d="M46.672 194.946c9.63-3.36 19.52-5.93 28.99-9.67 9.753-.913 18.26-5.785 27.448-8.602 4.7-1.987 12.788-5.29 14.843-5.18 2.055-.144 10.298.58 15.306 2.06 9.43-.07 14.68-9.586 25.786-11.205 8.48-5.753 18.69-2.866 28.08-5.192 10.54-.813 17.674-10.367 28.622-9.757 9.38-1.102 19.394-2.96 27.82-7.003 10.398-2.617 17.902-6.395 27.72-7.59 11.14.776 27.26 6.493 36.068-1.4 7.74-4.848 16.4-7.656 24.386-12.035 8.708-2.534 16.563-7.24 24.583-11.22 4.408-1.235 7.758-3.95 10.754-7.137 2.994-3.188 5.634-6.85 8.623-9.974 8.602-3.722 15.558-9.142 21.897-15.996 4.225-5.018 5.928-12.4 13.71-13.726 6.18-6.142 13.028-11.443 19.56-17.235 2.93-9.03 13.723-11.023 21.234-15.18 4.37-1.95 8.473-2.51 12.573-3.332 4.1.835 8.2 2.68 12.056 5.29 1.377.843 11.67-.79 13.086-.142.898.45 3.59 3.16 6.53 4.408 2.687.357 6.135 1.035 6.51 1.754.75 1.648.712 1.45 1.465 2.48 8.478 3.603 17.32 8.89 20.976 11.37 4.414 1.603 8.776 3.315 13.077 5.18 4.3 1.866 8.537 3.884 12.7 6.1 7.82.627 8.54 12.754 19.718 16.958 7.413 7.858 17.67 11.406 25.148 19.013 9.34 5.166 18.846 8.65 29.958 7.582 7.227.326 15.79 12.358 23.408 17.25 7.51 2.012 15.773 1.095 22.647 6.506 8.07 6.043 15.592 11.31 22.777 18.443 6.07 7.472 14.775 12.037 24.633 9.65 10.374.158 19.705-6.024 30.192-2.193 12.782 1.6 24.733 6.833 35.997 12.896 8.604 3.188 15.202 11.928 25.18 10.545 12.123.975 24.612 1.152 35.91 6.275 8.76 3.36 18.65 1.68 26.826 6.747 12.99 4.92 16.32 6.448 28.79 12.918 9.953 3.603 24.358 7.44 31.495 13.9 7.974 5.865 17.048 9.467 25.91 13.167 9.257 8.04-19.456 2.79-23.69 3.01-17.6-.394-28.678 8.375-38.284 10.9-10.685 3.715-19.95 4.61-29.34-.272-10.723-3.298-22.112-3.748-33.225-4.517-6.41.63-16.854-5.608-20.984-.595 2.525 9.636 4.242 13.947-8.297 10.256-9.873-3.29-19.303-7.568-28.88-11.58-12.327-3.29-24.197-9.55-37.338-8.267-11.515-.72-22.91.914-34.31 1.377-12.445-.37-25.25-1.575-37.336 2.176-9.972 2.772-20 5.4-29.82 8.467-11.068 7.33-24.985 3.29-37.312 3.215-10.86-.397-21.532-1.835-31.81-5.518-17.954-5.62-36.58-8.426-54.937-12.313-12.117-2.607-24.327-5.354-35.284-11.392-8.233-3.687-16.166-8.014-24.477-11.38-6.824-4.503-17.438-12.705-23.936-3.498-8.91 4.328-19.104 4.242-26.66 11.454-5.404 9.296-14.437 14.64-25.5 12.468-10.244 2.62-20.412.064-30.483-2.03-11.422-2.47-22.443-6.53-34.196-7.288-10.395-2.195-20.954-3.313-31.51-4.397-11.024-1.39-22.875.43-32.94-5.25-11.678-1.65 10.09-11.702-2.764-11.64-13.165-.55-26.928-.206-39.068 5.433-9.776 4.742-23.165-2.82-31.105 4.998-3.388 9.228-14.54 5.496-21.945 7.278-9.595 4.765-20.36 4.658-30.698 6.38-8.53 1.714-17.25 2.788-25.632-.847-14.222-4.06-28.338-10.456-43.463-9.083-12.183-.006-24.36 1.746-36.534.915 8.97-2.485 16.883-7.138 24.18-12.916 1.445-.898 2.926-1.813 4.586-2.26z"/><path fill="#585858" fill-rule="evenodd" d="M302.095 134.416c-1.62.766-4.26 1.32-8.435 1.176-7.418-.258-13.81-2.22-21.773-2.706 1.86 4.113 4.607 11.222 5.583 15.126 1.405 5.623-1.887 10.308-5.763 12.246l-7.203 3.6-7.203 3.603c-3.528 1.765-2.894 4.987-2.16 7.924.64 2.56 4.59 5.312 5.763 6.483 2.273 2.274 4.15 1.818 5.762 5.042 1.657 3.313 1.392 6.678.72 9.363-.958 3.834-.836 5.647 1.44 7.924 2.287 2.286 4.302 3.596 7.204 4.32 3.623.907 4.55 1.932 7.202-.72 1.976-1.975 1.408-5.89.72-8.643-.453-1.815-3.986-4.707-5.042-5.762-3.19-3.19 2.93.024 4.322.72 3.494 1.747 4.603 2.45 8.644 1.44 3.147-.786 3.602-3.67 3.602-7.202 0-2.595-4.156-6.316-5.043-7.203-2.93-2.932-2.133-3.602 1.44-3.602 2.59 0 6.08 1.958 7.924 2.88 2.866 1.435 3.67 5.318 4.32 7.925 1.173 4.688 5.614-3.725 5.764-4.322.72-2.88 2.864-4.255 3.6-7.203.455-1.813 7.198-3.602 0-3.602-4.468 0-6.517-.035-8.642-2.16-2.434-2.435-3.602-2.876-3.602-7.204 0-3.698 1.626-5.414 2.88-7.924 1.46-2.918 1.442-5.34 1.442-9.364 0-2.538-2.783-6.286-3.602-7.924-.322-.644.135-3.51.135-4.232zm202.23-95.056c2.913 6.792-37.864 82.25-57.623 68.416 4.37-1.95 32.963-52.57 17.975-82.205 4.1.835 8.2 2.68 12.056 5.29 1.377.843 11.67-.79 13.086-.142.898.45 3.59 3.16 6.53 4.408 2.687.357 6.135 1.035 6.51 1.754.75 1.648.712 1.45 1.465 2.48zm325.083 141.066c-2.69-.89-10.414-1.314-18.847-1.775-5.882.94-12.685-3.15-21.714-9.01-8.488-4.333-15.962-7.735-21.385-9.743-.8 2.234.295 5.166-5.94 8.284-2.28 1.14-2.162 5.766-2.162 8.645 0 2.954-3.39 5.34-4.322 7.203-1.228 2.457-3.79 4.056-5.763 5.042-2.448 1.224-2.892 5.086-3.6 7.923-.858 3.43-.003 5.04 2.16 7.204 2.2 2.2 7.18.01 8.644-.72 1.793-.898 2.91-5.824 3.6-7.204.798-1.594 6.795-1.44 9.365-1.44 2.065 0 5.792 2.348 7.924 2.88 5.616 1.405 7.392-1.213 8.643 5.043.592 2.965-7.464 2.39-.72 5.762 2.76 1.38 5.035 2.16 7.922 2.882 3.137.784 4.61 2.052 7.924 2.88 3.35.84 6.12 1.53 8.644 2.162 1.252.313 3.24 6.48 3.6 7.203.3.6 5.67-4.95 5.764-5.042 2.3-2.3 4.742-2.086 7.923-2.88 3.43-.86 6.818 1.523 9.364 2.16 3.93.98 6.003.84 8.645 2.16 3.232 1.617 3.6 3.067 3.6 7.204 0 2.75-4.143 4.233-5.76 5.042-2.926 1.46-6.98.595-9.365 0-3.14-.787-7.548 0-10.805 0-3.633 0-7.31.44-10.805 1.44-2.855.815 44.23 8.716 46.82 9.363 3.314.83 7.365.5 9.365 0 2.88-.72-2.16-5.673-2.16-8.643 0-3.44-.134-7.734-.722-10.085-.702-2.81-3.994-3.274-5.762-5.042-2.287-2.288-3.607-4.347-4.32-7.203-.916-3.66-3.534-5.368-5.763-6.483-2.75-1.375-3.993-3.076-6.483-4.322-3.67-1.835-4.81-6.018-6.483-9.364-1.223-2.446-5.42-9.923-7.022-11.524z"/><path fill="#f6f6f6" fill-rule="evenodd" stroke-opacity=".661" d="M538.31 55.833c-2.854-1.205-9.328-3.953-13.12-5.33-6.495-4.44-15.98-9.49-20.624-11.16-4.607 2.066-9.532 6.09-14.13 8.168-2.6 1.894-5.4 3.526-8.146 5.158-1.14 2.084-5.13 7.3.007 6.6 2.922-.726 7.02.926 3.97 4.253-.74 3.593-7.654 4.188-3.586 8.02-1.022 4.224-9.736 2.81-8.672 8.417 1.3 4.96-4.337 4.415-7.22 5.278.707 5.075-6.32 5.067-6.098 9.74-.167 2.104-.008 7.07 1.955 2.672 2.924-3.09 3.868-8.27 8.502-9.412.745 3.58-2.992 8.2-6.564 9.937-3.238 3.22-7.53 4.462-11.043 7.23-2.51 3.946-7.655 3.312-11.338 1.653-3.97-1.485-7.765 1.01-11.152 2.77-4.232.258-5.92 4.336-9.08 6.408-3.683 1.425-6.27 4.922-9.65 6.35-1.865-3.075 3.04-8.72-1.07-10.51-2.276 3.52-6.68 2.937-10.398 2.907-3.226.24-7.476-1-9.543 2.3 1.77 1.71 2.055 4.455-1.43 3.71-4.81-3.198-8.09 2.457-12.333 3.764-3.402 2.445-10.242.83-10.502 6.524-2.04.73-5.607-5.458-7.286-.457-2.815 1.94-10.46-.262-8.956 5.637-.88 2.795-6.153.438-7.64 3.75-3.992.674-7.824 1.795-10.754 4.824-3.653 2.897-8.66 1.613-12.713 3.667-2.984.778-7.685-3.47-7.64 1.938.764 5.253-5.25 2.888-7.92 4.663-2.74 2.53-5.956 5.62-5.052 9.75 2.98 2.095 5.27 5.79 8.165 7.417 3.875-.306 7.413-2.25 9.73-5.37 3.108-2.457 8.392 2.845 10.752-2.152 2.378-2.81 5.905-3.27 7.173.643 3.508 4.494-5.632 2.947-7.94 4.338-3.01 3.427-9.016.506-10.345 6.176-.803 2.397-5.317 4.362-4.824 6.408 4.32-.817 7.912-3.748 11.955-5.39 4.223-1.71 8.477-4.273 13.053-4.566-1.794 3.5-1.223 9.132-5.775 10.787-2.487 1.328-9.994 2.098-7.885 6.076 2.946 2.434 5.428 5.362 7.92 8.032 4.653.57 8.213-2.995 11.776-5.328 2.035-2.834 2.146-7.89 6.378-8.38 3.11.356 8.545-3.184 10.24.142-1.09 5.014 6.08 3.742 6.938.248 4.564-.55 9.505-1.49 12.873-4.974-.487-3.198-1.728-8.225 3.285-7.953 2.835-1.943 7.06-2.236 10.155-1.25-.826 4.006-3.47 8.275-7.615 9.373-5.123-.2-1.34 7.23 1.648 3.19 3.19-3.767 8.618-2 12.788-3.773 3.427-1.58 7.174-1.667 10.748-2.52 3.267-1.562.864-4.654-1.852-2.828-2.83 1.047-6.106 2.06-6.352-2.157-.04-3.907-7.997-.48-7.255-2.36 4.307-2.184 8.945-3.512 13.37-5.404 4.83-.873 8.414-4.624 13.048-5.964 3.208-1.808 4.383-7.052 8.93-5.87 4.314-.703 7.838-4.572 12.548-3.503 1.724-.19 6.214 1.672 2.138 1.732-3.084-.674-9.544 2.58-4.666 5.336 4.03.39 8.18-1.4 11.54-3.516 4.12-1.775 8.368-3.213 12.886-3.306 4.857-.814 4.162-6.1 2.14-9.107.84-4.66 6.82-5.594 10.817-5.452 4.455 1.14 7.67 5.336 11.144 8.25 2.304 3.718 7.074 4.29 10.94 5.123 4.62-1.405 7.264 2.01 8.576 6.03 1.958 2.53 8.834 2.418 6.556 7.03-3.027-.326-9.973.865-5.127 4.637 2.725 1.454 9.214 2.414 9.044-2.303-.287-2.497-.82-4.83 1.222-6.615-.315-2.75-9.9-4.838-4.155-7.38 3.902-.88 8.893-7.15 4.076-9.568-2.465.702-6.238-.03-3.453-3.037-.89-4.202-5.917 1.953-7.315-2.42-1.234-2.914 2-8.05-3.454-6.79-2.045.38-4.34-.604-1.124-1.704 3.95-.472 5.585-4.465 1.594-6.535-3.39-.107-3.906-2.808-1.177-4.63 3.394-1.81 8.183-5.278 3.29-8.686-2.522-1.972-.853-5.85 1.964-3.092 3.158 2.774 7.198 3.697 9.923 6.615 3.002.73 4.163-4.545 6.56-.155 1.11 3.44 6.085-1.59 4.576 3.286-1.094 4.235 1.58 8.04 3.01 11.814-2.407-.813-5.377-5.44-8.13-5.63-1.193 3.216-1.456 7.83 3.17 7.687 4.055.275 7.37 1.656 8.56 5.907 1.537 4.076-3.42 7.822.625 11.395 4.613 1.872 4.704 7.798 9.138 9.78 2.702 1.16 6.066-2.03 6.113 2.586 3.466 2.87 5.467 7.326 9.02 9.894 2.933 1.852 6.126 2.956 8.914.266 3.665.288 4.587 5.49 8.55 6.2 1.49 3.132 3.388 6.6 7.45 6.09 4.185-.774 6.136 3.755 9.538 4.207 2.43-1.43 1.864-4.437-.442-5.42 1.83-4.85 5.545 6.152 6.952-.032 4.67.802-1.63 6.96 4.196 6.487 3.05 1.54 7.668-.04 7.754 4.734 1.8 2.262.335 7.288 4.774 5.814 2.82.392 3.474 5.623 7.418 4.155 3.383-1.905 7.14-2.407 10.96-2.235 3.008-2.03 6.715 4.052 8.54 1.722-2.502-3.55-6.232-6.408-9.657-9.13-4.402-1.927-3.344-9.25-9.537-8.692-2.664-.234-6.166-3.307-5.65-5.466 3.618 2.468 8.024 2.333 11.8 4.287 3.048 3.035 5.986 6.526 8.942 9.69 2.546 2.868 9.23-.043 8.936 5.588-1.724 4.127 1.64 10.398 6.54 8.813 4.38-1.323 8.984 2.372 13.146-.31 2.166-2.172 6.218-1.88 6.9 1.516-4.065-.228-7.772 1.284-11.645 2.026-3.55.217-7.048-3.244-10.502-.94-1.066 4.94 4.668 7.42 8.862 6.55 3.32-.168 6.643.35 9.608 1.877 3.803.056 6.842 3.207 10.758 2.725 5.706.197 10.314 4.11 15.9 4.79 2.53.207 8.42 2.37 8.823-.865-3.785-2.805-8.753-3.773-12.96-5.976-5.312-1.424 1.105-8.13-3.458-10.51-2.627-2.118-6.392 6.977-5.725 1.79.78-1.965 2.822-4.688-.93-4.537-3.073.55-5.122-.68-6.582-3.38-4.04-.347-8.194-.174-12.266-.033-2.672-.715-2.504 1.91-3.232 2.97-1.78-2.167-5.376-3.008-6.753-4.876 2.457-1.572 5.855-4.444 1.644-6.455-1.693-2.17 4.767-2.088 2.208-4.99-1.928-3.522-2.87-9.667-7.833-9.8-5.04-1.04 3.673-2.128 5.415-1.124 4.526-.6 8.45 4.01 12.87 1.933 2.946-2.808 3.684-8.67 8.56-8.702 3.892-.222 7.492-1.333 10.256-4.062.55-1.574-1.92-4.05 1.364-2.935 4.618 1.562.84-2.912-1.288-3.688-2.027-3.73-5.888-5.762-8.488-9.003-3.737-.985-5.554-3.91-6.983-7.366-3.865-3.08-8.44.843-12.386 1.854-3.244 1.457-7.043 1.474-8.36 5.337-2.666 1.2-8.84 1.195-9.612-1.14 2.2-.172 3.953-2.122.67-2.56-3.145 1.02-9.217-1.59-9.975 2.878.812 4.422-5.004 4.16-7.918 5.106-3.88-.097-3.844 8.27-8.528 4.923-3.312-2.36-7-6.57-11.033-2.75-3.633 2.898-8.087 3.327-12.55 3.483-4.015 1.24-5.48-3.51-8.133-5.04-5.123-.03-5.567 5.853-1.062 7.36 2.382-2.316 4.772-1.945 5.415 1.563-.146 3.504 8.096 5.15 3.936 7.937-3.488-2.442-7.205-5.43-11.307-7.42-4.08-1.65-6.834-5.194-10.177-7.886-2.3-3.888-5.766-6.53-9.647-8.54-1.84-3.497-4.015-6.906-6.67-9.84-3.045-2.77-.533-7.638-2.02-11.16-.28-2.564-6.597-4.586-1.876-6.336 2.657-1.165 8.1-5.773 8.295.02.242 4-5.263 6.132-3.257 10.49.48 1.674 1.888 6.885 1.524 2.39-.805-3.174 1.967-7.31 4.75-7.88.105 4.18 1.61 7.97 3.67 11.544 1.085 4.05 2.178 8.282 5.075 11.43 1.858 3.84 6.846.127 7.192-2.035-2.29-3.155-6.564-4.645-7.952-8.425 1.14-4.772-3.366-6.273-6.123-8.805-.902-4.145 2.218-7.613 4.998-10.212 1.615-4.118-.86-8.335-2.928-11.796-1.17-4.317-5.185-6.607-6.77-10.61-1.176-2.707-5.886-5.122-1.568-7.575-.262-3.82-4.536-6.667-3.69-11.002-3.614-1.978-7.253-3.767-8.355-8.142-3.453-1.524-7.747-1.362-9.793-5.196-1.288-1.438-1.067-3.468-1.91-5.157zM367.235 100.91c-1.512 1.84-7.154 6.157-10.88 7.113-8.946 4.65-19.987 10.27-24.53 11.275 2.374-.28 5.167-.08 6.532 2.178 1.375 1.912 2.124 4.464 4.487 5.448 2.074 1.04 4.61 1.96 6.815.746 1.98-1.006 3.796-2.33 5.577-3.642 1.667-1.623 2.995-3.566 3.97-5.666 1.388-2.454 4.42-3.425 7.098-2.96 2.992.375 6.603-.082 8.355-2.854 1.235-1.522 4.474-1.373 4.14-3.966-.137-2.734 3.03-3.53 4.99-4.506 1.96-1.656 3.92.028 5.632 1.055 2.31.5 3.19-2.19 4.126-3.72 1.678-1.492 4.123-1.153 6.202-1.436 3.344-.104 6.928.666 10-1.07 3.268-1.415 4.926-4.723 6.516-7.69.974-2.07 2.39-4.138 2.04-6.54-.37-2.77 1.42-5.102 2.52-7.483 2.653-3.692 3.627-8.248 5.9-12.15 1.014-2.165 1.913-4.38 2.805-6.6-2.25.712-3.896 2.566-6.087 3.43-3.01 1.39-5.92 2.983-8.612 4.925-2.772 1.706-5.137 3.987-6.97 6.673-2.135 2.995-3.9 6.316-6.792 8.688-2.327 2.266-5.26 3.75-7.713 5.843-2.205 2.057-4.345 4.427-7.34 5.3-5.028 2.34-9.564 6.32-15.336 6.62-1.207.29-2.204.874-3.444.99zm115.522 44.22c.412 5.467-11.62 6.95-4.983 12.588 3.494 2.593 14.446-7.222 11.427 1.043-2.67 6.953-11.495 5.16-16.827 8.46-6.31 3.44-12.454-.674-18.552-2.242-3.89.178-15.05-6.445-6.72-7.962 7.67.215 14.76-2.893 20.22-7.685 4.38-.586 2.915-7.47 8.875-5.965 2.37.093 5.208-.84 6.56 1.766zm20.53 21.25c-5.476 1.525-11.203-5.667-14.258 1.132-6.573 2.373-14.073 9.694-20.853 4.128-3.336 3.34-15.796 2.72-9.92 9.94 5.616 3.654 14.597-.528 18.706 6.202 4.34 5.73 12.695 5.808 19.28 6.098 5.826.538 11.34 3.575 16.773 1.26 2.613 4.703 4.68-.142 1.23-2.086.75-4.184 7.51 4.687 11.14 1.834 4.733-1.037 17.504 3.03 13.813-5.554-4.7-4.996-5.984-15.256-14.928-12.26-6.053.362-12.576-1.32-17.383-4.93-1.443-1.828-1.3-4.563-3.603-5.764zm10.444 41.778c-6.37-2.848-13.95-3.188-19.45-7.563-6.39-2.658-13.532-.967-20.258-1.43-4.36-1.463-9.725-6.817-14.858-3.653 5.438 2.506 10.606 5.025 13.383 10.376 6.665 1.895 13.128 3.787 18.517 8.307 5.712 1.662 12.684 2.77 18.163.11 2.996-.735 5.392-2.784 4.502-6.147zm31.333-53.303c-2.122 6.515 4.03 12.59 10.25 14.663 4.468 3.67-4.88-2.667-6.685-2.826-2.934-2.91-13.737-10.532-11.398-1.662 3.983 4-5.94-2.643-8.014.27-6.58 2.31-.03 10.723 5.45 9.78 7.474 1.557 13.57 7.306 21.362 7.604 1.164 2.105 8.848 6.38 4.522 1.344-3.316-4.475 2.03-11.355-2.91-16.217-3.668-4.932-11.782-5.57-12.577-12.955zm29.173 29.533c-4.493-1.812-16.055-2.356-8.893 4.857 3.008 3.882 10.956 8.502 11.293 11.77-5.06-1.756-9.01-7.234-13.497-8.533 1.14 2.61 3.852 5.66-.787 2.71-6.046-1.195.806 5.416 2.846 6.78 6.09 4.46 12.606 8.32 19.466 11.32 2.696 2.327 10.317 4.917 3.44.98-3.24-2.94-11.765-5.766-10.937-9.885 6.984 2.737 12 9.493 19.554 11.28 2.645 2.335 11.834 6.316 8.322-.863 2.318-6.33-5.204-12.536.49-17.19-.792-9.813-10.75-5.34-15.45-1.34-3.823.187-6.865.96-3.243 4.68 2.69 7.13 15.816 1.808 14.692 11.13-2.267 2.61-5.716-4.685-9.47-3.957-5.79-3.732-10.605-9.19-13.505-15.455-1.356-2.87-3.736-5.037-4.322-8.284zm48.26 48.26c-6.737.424-4.31 10.144 1.44 5.763 4.19-2.013 2.47-5.18-1.44-5.76zm72.392-45.02c-5.818-.15-6.55 9.252-12.36 3.488-1.84-3.64-6.097-5.76-9.137-8.185 5.12-1.62 9.025 3.81 12.133 5.78 1.662-4.17 7.69-7.847 9.364-1.08zm-92.453-86.458c6.43 3.05 15.615 4.83 21.948 4.448-2.326 3.82-6.698 6.953-8.37 11.42-7.002 1.79-14.445 3.104-21.273 4.9-2.786-1.555-3.008-5.863-7.015-6.37-1.77-7.025 7.368-5.268 7.865-11.303 1.72-1.682 5.445-.925 6.845-3.095zm141.645 52.814c1.49.062 2.95.246 5.52 1.202 3.206.256 8.668 1.54 11.413 2.334-4.443.698-10.186 10.814-13.217 11.126-1.004-4.398-2.875-10.266-3.716-14.662zm-7.774 39.048c-3.38 6.33-12.474 6.385-16.596 12.16-6.6.154-12.092 11.756-18.212 3.82-3.082-4.095-6.122-8.148-2.223-12.87 2.87-6.162 12.128.96 17.06 1.175 5.97-.757 14.6 2.288 15.77-5.444 1.465-.53 2.973.52 4.2 1.16zm18.008-12.966c-.95 1.005-10.77 6.48-6.178-.11 1.056-3.26 8.05-5.76 6.178.11zm-9.725-3.24c-3.657.8-7.123 1.918-4.872 6.59 2.47-1.04 7.525-2.99 4.873-6.59zm53.304 15.846c-4.908.73-8.722-9.022-1.865-10.137 8.145-.575 1.665 11.366 10.055 10.593 8.438 3.256-3.43 12.796-8.55 8.547-4.795-.728-7.347-9.83-.36-6.482 2.408 1.934 7.753 3.34 3.528-1.094-.324-1.326-1.585-1.838-2.81-1.428zm-42.858 15.126c-3.825-1.83-15.56-1.582-9.605 4.445 4.605-.607 11.41 2.75 14.77-.128-.725-2.197-3.817-2.517-5.164-4.317zm-40.698 10.445c4.796-1.483 12.99-.7 18.127 2.788 3.375 1.125 12.7 5.643 3.843 5.496-7.446-.19-15.058-3.102-21.26-7.036l-.71-1.247zm36.736 0c1.873-3.5 2.19 1.706-2.16 0-4.35-1.707-12.005 6.7-3.89 5.942 5.654-.966 4.178-2.443 6.05-5.942zm3.602 1.8c-3.114 6.784 8.847 8.408 13.766 6.456 7.524.96 15.56.334 22.538 3.983 5.653 2.57 16.025 3.07 18.485-3.952-1.067-8.16-12.35-4.846-18.04-7.868-7.123-3.555-13.565 5.776-20.086-.215-5.74-3.154-10.202 5.944-16.664 1.596zm81.035-9.003c-4.715 3.083-17.234-.62-10.085-6.8 4.357-1.864 9.687 2.395 10.086 6.8zm-18.727 12.965c-1.804 7.193 8.134 7.193 12.48 5.334-1.28-4.607-8.32-2.237-10.2-6.52l-1.034.432-1.247.753zm57.264 23.41c-2.298-4.552-13.147-5.43-7.492-12.082 6.313-3.382 12.013 4.552 17.604-.165 4.644-1.23 15.543.918 13.8 6.92-5.63 4.236-12.968 5.9-20.05 5.848-1.3-.06-2.588-.27-3.863-.52zm-2.88-51.862c.944 7.87-9.41 7.882-14.78 8.987-9.355.52-13.067-9.363-18.6-14.887-4.48-2.646-14.09.038-15.278-5.927 4.717-.674 8.207 6.31 13.558 2.657 7.675 1.135 15.278 2.093 22.853 3.047 3.61 3.153 10.426.843 12.246 6.123zm-51.863-3.962c-2.95 1.406-5.084-2.728-6.123-5.04-6.483.147 2.997 4.826 3.493 7.792 3.184 2.925 7.75-1.59 2.63-2.75zM628.26 124.963c1.025 3.41 3.924 8.508 8.38 10.41-1.84 2.26-7.016 1.47-4.417 6.518-4.445 6.87-11.486-.346-16.453-2.682-2.276.858 4.907 6.824 6.468 9.185 3.122 6.75-6.328-.036-8.023-2.18-3.248-3.322-9.143-3.517-6.802-9.532-.828-5.305 8.036-2.06 7.275-8.342 1.55-5.908 9.137-5.273 13.573-3.376zm-402.292 43.58c-1.206 4.578-5.126 2.418-7.643.42-5.602 2.466-11.478 4.216-16.488-.78-7.344-4.012-15.407.974-22.834 2.42-3.112 2.11-15.23 1.252-7.033-2.474 6.79-2.358 14.415-1.938 20.75-5.755 8.295 1.022 15.79-5.115 24.03-1.797 2.895 3.214 5.657 5.02 9.218 7.965zM165.1 186.188c-1.064.505-15.765.252-7.922-3.243 2.722-.022 8.334-1.25 7.923 3.242zm257.873-4.323c-1.26 1.898-9.85 8.778-7.924.36 1.43-2.078 5.802-1.083 7.923-.36zm-38.537 18.008c-2.874.607-4.682 10.652-8.644 4.322-5.295-5.47 5.817-7.66 8.644-4.322zm68.07-170.354c-.384.767-.36 3.853-.36 5.764 0 1.636-.36 3.06-.36 5.042 0 .952-2.093 2.023-2.522 2.88-.723 1.448-1.073 2.493-1.44 3.963-.334 1.333-.36 3.215-.36 5.04 0 2.342-.445 3.05-1.08 4.323-.725 1.447-1.416 2.058-1.802 3.6-.376 1.506-1.443 2.17-1.8 3.603-.334 1.334-.36 3.217-.36 5.042v5.402c0 2.378-.69 2.46-1.442 3.962-.768 1.537-1.08 2.12-1.08 4.322 0 1.72.066 3.867.36 5.042.428 1.712.375 3.66.72 5.042.548 2.19-.405 3.287-1.44 4.322-.897.896-.818 3.27-1.08 4.322-.49 1.955-.348 2.89 1.08 3.962 1.594 1.196 2.272 1.025 3.6.36.348-.173 0-4.82 0-5.402 0-1.63-.72-2.772-.72-4.682 0-1.398-.36-3.4-.36-5.043 0-2.316.693-2.768 1.08-4.32.412-1.645.99-2.16 1.442-3.963.32-1.275 1.13-2.72 1.44-3.962.393-1.57 0-3.774 0-5.402 0-1.104 1.146-2.782 1.44-3.962.38-1.52-.117-4.076-.36-5.042-.394-1.582-.36-3.102-.36-5.042 0-2.39 1.282-4.142 2.162-6.123.582-1.308 1.35-2.43 2.16-3.24.778-.777 1.08-2.843 1.08-4.322 0-2.38.36-2.88 1.082-4.322.7-1.4 1.452-2.568 1.8-3.962.363-1.45.364-3.226 0-4.682-.254-1.02-1.487-1.9-2.52-2.52zm7.923 21.61c-.397-1.584 3.564 1.298 3.96 2.882.406 1.622.325 3.383 0 4.682-.33 1.323-1.658 2.237-2.16 3.24-1.47 2.94-2.753 4.787-3.602 6.484-.527 1.053-1.826 2.187-2.52 2.88-.56.56-1.26 3.235-1.442 3.963-.545 2.18-2.24 1.28-2.88 0-.48-.955 1.394-3.195 1.8-3.6.625-.626 1.44-2.88 1.8-3.602l1.8-3.602c.635-1.268 1.45-2.195 1.802-3.6.376-1.504 1.258-2.518 1.8-3.603.788-1.574-.36-4.633-.36-6.122zM654.55 160.26c-5.93-3.67-14.7 5.313-3.95 5.224 4.465 2.428 8.77-1.604 3.95-5.224zM515.892 51.13c-2.374 7.21-25.885 10.78-13.15 18.36 5.88 1.095 5.107-7.443 8.882-1.26 5.784 1.283 12.875-10.695 12.995-.795 7.31 5.586 17.155-6.565 4.873-6.884-5.84.666-15.716-1.103-5.537-5.428.258-3.732-5.96-2.185-8.063-3.992zm-18.367 33.495c-11.542-.795-.664 13.984 2.183 2.05 5.386 10.645 10.535-9.123.955-3.335.025 2.672-1.862 2.5-3.138 1.285zm17.287-5.042c-2.966-11.39 22.37-5.063 7.624.682-6.18 1.972-9.992 10.967-.52 5.42 6.3-1.727 16.237-.04 9.702-5.683 16.882-2.057 1.083 9.176-4.567 11.368-6.815 1.63-8.25 2.197-.965 5.433-1.54 3.644-9.46 3.935-6.795-1.516-4.723-2.88-16.725 10.05-12.04-.938 5.63-2.51 6.314-9.47 7.562-14.767zm20.17 35.295c.51 3.175 3.712 7.26 5.4 3.46.767 5.247 6.65 3.047 1.87 7.54.92 1.935-1.87 3.804.198 8.045-5.608 6.44 4.69 5.77 3.59.032 3.95 7.27-.412-5.342 6.59.732 2.372-6.147-8.748-5.575-5.764-12.606-5.495-1.04-5.9-16.153-11.885-7.202zm-81.756 7.923c-11.993 1.526 3.056 10.4 0 0zm-116.33 40.34c6.46-1.77 3.89 9.75 11.366 2.875 7.416-2.134 18.015-3.334 18.166-11.88 7.687.164 25.165-10.294 21.99-13.54-10.076 4.158-19.542 10.714-30.943 9.553-10.882 9.828-21.78-5.363-31.74 4.088 3.35 2.076 21.038-2.404 10.795 5.77l.04 1.067.325 2.066z"/><path fill="#323232" fill-rule="evenodd" stroke-opacity=".661" d="M464.677 25.57c4.203 1.358 10.42 2.483 12.292 6.645.127 3.004-.98 5.84-2.105 8.53 1.19 3.444 6.632 5.66 4.62 10.39-1.065 4.668-7.9-1.797-8.8 4.103-1.266 4.637-.52 9.64-2.172 14.225-1.022 5.238 1.53 11.525-2.295 15.978-2.696 2.735-8.23 3.16-7.116 8.368 1.582 4.403-1.725 7.708-5.78 8.98-2.288 2.577-9.414 4.872-5.85-.66 2.407-2.76 8.48-5.648 4.555-9.915-2.4-3.914 5.244-3.372 5.795-7.218 2.495-1.078 3.802-6.948-.348-4.95-3.126 3.275-6.674 6.228-10.3 8.91-1.55 4.4-4.6 7.52-8.176 10.28-2.19 3.483.12 11.037-6.287 10.303-4.575-.08-6.776 4.498-10.085 6.77-4.306 2.182-2.715-3.64-2.534-5.67-3.94-.897-1.874-7.32 1.24-6.552.472 3.174 3.826 2.878 4.44-.295 2.47-2.904 3.786-7.162 7.68-8.554 3.54-1.56 6.44-4.158 9.924-5.824 4.315-2.53 6.573-7.166 9.5-10.97 2.892-2.485 7.136-3.94 8.15-8.05 1.53-4.15 2.327-8.58 4.415-12.485.184-3.117-3.097-5.91-.317-9.036 1.893-4.22 1.522-9.772-2.173-12.928-2.338-1.925-4.746-6.997-.186-7.7 1.115-.368 2.272-1.37 1.913-2.67zm-71.597 87.867c-3.836 1.223-3.323 6.976-8.46 5.857-4.923 2.632-9.253 7.46-15.166 7.534-5.848-1.1-9.5 4.41-14.933 4.994-4.406 2.142-5.748 7.665-11.627 7.165-5.624 2.223-10.6 5.69-16.545 7.055-4.653 1.446-10.365-.88-14.303 2.69-1.388 5.954-8.978 4.604-12.606 9.005-3.318 4.78.778 9.918 1.263 14.95-1.942 5.198-8.1 1.26-11.932 2.216-4.036 3.522-5.967 8.937-9.123 13.31-5.29 3.695-6.123-5.865-.376-5.266 6.184-2.126 6.895-9.987 13.155-12.015 7.26-.44 4.445-7.795 3.053-12.115 2.27-4.958 10.094-3.89 12.245-9.364.41-4.714 2.79-9.397 8.283-6.483 5.158-.82 8.572-6.275 14.243-5.105 5.907-1.04 11.112-4.59 16.573-7.062 5.54-3.233 12.24-3.732 17.38-7.798 5.193-1.063 9.957-3.315 14.656-5.88 4.554-1.116 4.176-6.508 2.687-9.645 2.022-3.268 7.773-1.394 3.61 1.996-1.927 3.65 2.487 7.596 5.568 3.793.79-.2 1.58.044 2.355.167zm-126.415 20.89c.48 2.26 1.506 4.592.815 6.923-1.436 1.943-4.134 1.605-6.23 1.306-1.954-.534-5.85 1.866-3.35 3.68 1.995.72 4.283.764 6.372.463 2.13-.95 3.88 1.078 2.69 3.036-.7 1.86-.805 4.277-2.633 5.443-2.56.867-5.312.13-7.95.4-4.583.26-9.17.506-13.76.327-2.872-.013-5.754.312-8.613.29-2.345-.618-3.216-3.14-4.862-4.626-1.65-1.11-4.135-.946-5.235-2.833-.05-2.15 2.482-2.485 4.04-3.037 2.513-1.018 5.22-1.41 7.76-2.326 1.785-.75 3.382-1.964 5.355-2.186 1.708-.32 3.45-.76 4.85-1.84 4.982-2.55 10.638-3.153 16.1-3.917 1.583-.065 3.425.117 4.65-1.104zm264.714-6.483c1.93.545 4.21 1.357 5.076 3.33.618 1.632.047 3.804-2.097 3.545-1.184.094-3.695.198-2.287 1.964.772 1.333 3.165 3.865.808 4.866-1.818.843-3.828.392-5.6-.32-1.794-.41-4.006-1.158-4.437-3.2-.28-1.972-1.263-3.7-3.424-3.92-1.37-.747-3.688-1.775-2.807-3.745.684-2.01-1.91-2.616-2.965-3.823-1.46-.94-2.092-2.65-2.908-4.104-.393-1.72-.114-3.648-1.332-5.112-1.07-1.473-1.708-3.414-.327-4.932 1.004-1.413 2.57-2.913 1.88-4.824-.365-1.756-1.544-3.38-1.546-5.15.56-2.565 3.286-.362 4.59.36 1.96.974 1.812 3.744 3.814 4.673 1.75.874 2.59 2.88 4.448 3.603 1.5 1.08 2.525 2.823 2.973 4.595.405 2-.63 4.317.827 6.037 1.31 1.833 3.384 2.922 4.785 4.648.153.51.325 1.015.527 1.51zm-18.008-14.407c1.672 1.49 2.893 3.458 3.224 5.694.512 2.045.868 4.195 2.184 5.913.636 1.52 1.822 2.655 3.07 3.677 1.37-.936.08-3.582.662-5.14.426-.784.382-3.646-.53-1.66-.36 1.55-2.385 3.5-3.176 1.1-.985-1.712-.95-3.7-1.135-5.595-.37-2.152-2.49-2.826-4.086-3.83l-.212-.158zm99.763 37.817c-9.48.103-20.224-.57-12.753-12.363-1.805-15.593-9.223 4.587-7.6 9.474-13.298-.685-4.463-20.075 4.866-20.88-1.125-11.356 26.613 1.533 11.753 5.828-7.757 5.254 9.137 10.695 3.735 17.942zm-18.368-50.062c-5.067-9.855-18.133 1.178-24.49-9.724-4.485-9.51-7.105-.618-.72 3.24 7.572 1.99 6.737 17.67 13.768 15.34.293-9.814 8.987-1.54 11.442-8.856zm64.107 29.173c.17 6.985-16.24 12.095-12.965 0 4.65 1.822 9.245-2.897 12.964 0zm-9.004-3.242c-12.12 3.017-.034-11.405 0 0zm-9.724 2.16c-1.63-4.59-9.742-4.164-4.682 2.162 1.354 1.553 5.794.308 4.682-2.16zm-3.24 10.806c-3.55 1.887-5.515 6.21-7.564 7.562 3.248 2.425 7.657-5.52 7.563-7.563zm72.39 20.528c-12.258.696 3.71 17.354-5.424 17.983-1.492-6.504-8.425-21.036 5.424-17.982zm19.45-3.602c.403 10.902-14.238 16.546-15.082 26.9 6.835 2.436 8.72-15.99 12.842-12.1-1.072-4.573 11.453-13.895 2.24-14.8zm6.842-.36c1.453 6.982-6.94 13.94-9.23 20.81-7.082 2.892 4.893 10.49 3.107.08 1.368-8.113 6.468-9.85 4.888-1.338 3.093-3.258 3.647-25.194 7.65-12.518 6.464-5.053-.645-9.673-6.415-7.034zm5.042 10.805c-2.986 4.734 1.78 13.17 2.65 3.03-.15-1.468-1.434-2.444-2.65-3.03zm34.575 14.407c-1.538 9.78 10.755-1.518 13.817 7.673 1.588-7.307-7.653-11.19-13.817-7.673zm59.065 48.98c6.07-8.462-10.802-9.024-.49-15.923 8.39-.238 16.228 3.39 10.408 10.318 1.05 6.652 13.26 7.55 6.586 15.453-6.46-.63-5.876-6.28-9.3-10.567-.915-9.348-3.13-2.6-3.627 2.213-1.314.53-2.628-1.01-3.577-1.492zm-399.052-33.133c-.614-6.602-1.486-14.246-7.844-17.953-1.476-18.452 12.138 4.636 16.668 10.03 12.652 2.444 11.208 16.673 25.39 20.17 9.527 8.625 22.543 10.57 33.988 13.272 13.13 4.52 18.532 2.025 12.473-11.832 7.697-12.635 27.457-3.206 34.214 6.482 12.577 4.18.23 8.76-4.682 1.44-5.657-10.98-7.79-.712-6.326 5.525-18.62 4.858 2.31 7.546 9.866 9.195-5.74-10.515 10.096-7.93 17.348-.313 16.622 7.29-7.575-10.924 3.08-13.398-.494-8.432-27.445-13.987-6.32-15.775 11.34 1.29 21.87 10.86 15.42 21.7-8.014 16.84 17.203 15.808 10.15-.81-8.633-11.827 5.7-6.1 10.798-2.268 2.396 4.894 24.31 7.695 12.846 10.616-13.334-9.943 1.462 5.635 8.05 6.056 8.094 9.376 10.54 2.823 16.966-3.906 2.974 5.9 13.46 4.913 5.702-3.25.38-15.964-18.114 12.676-12.584-4.37 14.685-5.752-4.765-7.986-5.852-16.86-2.38-13.784 11.382-4.913 13.134 2.353 15.79 13.04-5.964-24.287 7.637-9.32-1.492 18.16 21.196 3.36 19.297 20.225 12.745-1.007 29.33 3.77 43.58 5.403l-2.9 1.85c-12.447-.372-25.25-1.576-37.338 2.175-9.972 2.772-20 5.4-29.82 8.467-11.068 7.33-24.985 3.29-37.312 3.215-10.86-.397-21.532-1.835-31.81-5.518-17.954-5.62-36.58-8.426-54.937-12.313-12.117-2.607-24.327-5.354-35.284-11.392-8.233-3.687-16.166-8.014-24.477-11.38-6.824-4.503-17.438-12.705-23.936-3.498-8.91 4.328-19.104 4.242-26.66 11.454-5.404 9.296-14.437 14.64-25.5 12.468-10.244 2.62-20.412.064-30.483-2.03-11.422-2.47-22.443-6.53-34.196-7.288-10.395-2.195-20.954-3.313-31.51-4.397-11.024-1.39-22.875.43-32.94-5.25-1.422-2.44-2.157-3.793 1.704-3.574 8.904.58 18.89-4.582 20.53 6.843 17.978.562 36.623-3.448 53.07 4.288 7.294-4.912 7.18-16.647 18.96-9.33 2.87-1.296-3.42-6.99 5.763-7.204.45-6.978 9.622 2.31 11.173-4.845-1.704 9.92 19.214 19.59 5.476 6.68-5.56-12.963 7.868-4.187 5.993 3.705 3.95 8.61 31.67 7.536 13.86-.727 1.595-11.982 24.04 10.274 22.203-5.535 1.614-4.482 14.983-.62 5.763 5.403.43 1.75 2.6 1.97 3.6 3.24M108.197 220.63c-.99-3.85-6.157-5.753-3.126-7.86 3.787-.376 7.58 1.94 11.313.354 5.18-1.608 10.74-.436 15.906-2.164 6.745-1.678 13.78-.755 20.656-1 3.887.364 7.476-1.39 11.033-2.616 1.53-.917 4.797-4.27.787-3.526-3.867.28-7.87 1.2-11.614-.308-3.664-1.644-5.387 4.145-9.143 2.564-4.154-1.397-8.504-2.07-12.89-1.878-5.706-.457-11.026 2.05-16.664 2.297-4.83.35-9.418 2.428-14.33 2.024-1.568.25-6.26-.154-2.725-1.79 3.963-1.966 8.593-.164 12.73-1.48 3.782-.86 7.863.425 11.497-1.014.397-2.4-4.954-1.137-6.722-1.477-5.626-.01-11.36-.324-16.793 1.44-2.212.84-2.523-.19-.27-.917 3.08-1.26 7.39-2.08 7.473-6.287-4.85 1.104-9.14 4.17-14.196 4.558-3.853 1.005-7.832 1.237-11.736 1.926-1.67 1.863-3.423 5.298-3.226 7.336 4.473 2.41 26.762 9.986 32.04 9.817z"/></svg>