<?xml version="1.0"?><svg width="1056" height="286.86614173228344" xmlns="http://www.w3.org/2000/svg">
 <title>Mt. Rainier</title>

 <g>
  <title>Layer 1</title>
  <path fill="#8d8d8d" fill-rule="evenodd" stroke-width="1px" stroke-opacity="0.660714" id="path2639" d="m46.671928,194.945557c9.62978,-3.360794 19.518768,-5.930054 28.990929,-9.669815c9.751686,-0.91275 18.260155,-5.784302 27.447151,-8.601242c4.698891,-1.987839 12.78833,-5.291229 14.842941,-5.180771c2.054619,-0.144196 10.298485,0.578796 15.306221,2.059692c9.431396,-0.069855 14.679535,-9.585648 25.786484,-11.204071c8.480255,-5.752197 18.690903,-2.865738 28.079407,-5.191086c10.540543,-0.813461 17.675095,-10.367584 28.623016,-9.757156c9.379074,-1.103516 19.393997,-2.959915 27.81958,-7.004211c10.398209,-2.616562 17.902618,-6.394943 27.721771,-7.590424c11.13739,0.776917 27.25766,6.493103 36.067017,-1.400558c7.741028,-4.846878 16.40036,-7.654884 24.38562,-12.033562c8.708313,-2.5345 16.562897,-7.241241 24.582611,-11.220932c4.408539,-1.233963 7.758759,-3.948921 10.754028,-7.136719c2.9953,-3.187805 5.635742,-6.84845 8.624756,-9.973831c8.601318,-3.723289 15.557861,-9.142418 21.896332,-15.996918c4.224945,-5.018036 5.92804,-12.401314 13.710999,-13.726322c6.179047,-6.141712 13.026855,-11.443111 19.558716,-17.234161c2.931427,-9.029938 13.723541,-11.023708 21.234467,-15.181669c4.371063,-1.948549 8.472778,-2.508989 12.573242,-3.33057c4.100433,0.83375 8.199585,2.679689 12.056213,5.28924c1.37619,0.84296 11.670197,-0.790609 13.085938,-0.14257c0.898895,0.451361 3.589233,3.160301 6.530945,4.408142c2.687042,0.356499 6.134796,1.034588 6.511139,1.753609c0.749084,1.647942 0.711029,1.450619 1.463318,2.480209c8.477783,3.603039 17.320374,8.888802 20.976257,11.369701c4.412537,1.60376 8.775452,3.315929 13.075623,5.18103c4.30011,1.865108 8.537476,3.883148 12.698914,6.098648c7.821533,0.628113 8.541199,12.754341 19.719788,16.958801c7.412842,7.857857 17.668335,11.406456 25.147644,19.013046c9.339783,5.164902 18.846069,8.648926 29.958069,7.580872c7.225952,0.325699 15.790283,12.357925 23.406616,17.250641c7.510071,2.011108 15.773804,1.094872 22.647095,6.505638c8.068848,6.042618 15.591797,11.310745 22.776855,18.442398c6.070923,7.47171 14.775024,12.036789 24.633484,9.650192c10.373901,0.157394 19.705261,-6.024368 30.191467,-2.193512c12.782776,1.600159 24.733093,6.832687 35.997009,12.896057c8.60437,3.187424 15.202515,11.92746 25.180481,10.544861c12.12262,0.975113 24.612,1.15181 35.911072,6.274734c8.757568,3.361526 18.647766,1.680878 26.825134,6.746994c12.988342,4.92009 16.32019,6.447723 28.788879,12.918365c9.954224,3.602814 24.358582,7.440552 31.495911,13.899658c7.974426,5.864548 17.047485,9.467239 25.909851,13.16713c9.257202,8.041122 -19.455872,2.791168 -23.691101,3.008713c-17.599854,-0.392426 -28.677185,8.375748 -38.28302,10.899811c-10.685669,3.715866 -19.950562,4.612122 -29.339355,-0.270889c-10.724365,-3.298248 -22.113342,-3.747269 -33.226257,-4.516876c-6.410461,0.630096 -16.854004,-5.607864 -20.984558,-0.594986c2.523926,9.634842 4.241455,13.946335 -8.297852,10.255325c-9.873047,-3.288727 -19.302917,-7.568329 -28.879761,-11.580109c-12.327332,-3.289413 -24.197449,-9.550766 -37.338501,-8.266968c-11.514343,-0.718491 -22.908447,0.915268 -34.308594,1.37738c-12.446411,-0.371002 -25.249756,-1.574051 -37.337219,2.17662c-9.970764,2.771576 -19.997925,5.400238 -29.81842,8.466843c-11.068481,7.330292 -24.984802,3.289612 -37.312073,3.215485c-10.861328,-0.397552 -21.532104,-1.835037 -31.810242,-5.518784c-17.954163,-5.619141 -36.578918,-8.42569 -54.936646,-12.312637c-12.118439,-2.606827 -24.32843,-5.354477 -35.285583,-11.392044c-8.2323,-3.687393 -16.165833,-8.014145 -24.476257,-11.378937c-6.823517,-4.504227 -17.437256,-12.705948 -23.935272,-3.499405c-8.910736,4.32811 -19.104645,4.242065 -26.660431,11.454407c-5.40329,9.296341 -14.436615,14.640579 -25.500397,12.468079c-10.242981,2.620453 -20.411163,0.063843 -30.482574,-2.029739c-11.422607,-2.470367 -22.443695,-6.529282 -34.196442,-7.288696c-10.395233,-2.194275 -20.954681,-3.312851 -31.51059,-4.397003c-11.023865,-1.391388 -22.874512,0.429306 -32.939926,-5.251678c-11.677963,-1.648788 10.088943,-11.70108 -2.763947,-11.638351c-13.165161,-0.549301 -26.927582,-0.206177 -39.067673,5.432236c-9.776001,4.741623 -23.165344,-2.81955 -31.104904,4.998001c-3.38797,9.227463 -14.541733,5.495056 -21.945602,7.277008c-9.595001,4.765244 -20.360062,4.658188 -30.698181,6.378693c-8.528839,1.715469 -17.248306,2.789352 -25.631577,-0.84581c-14.221779,-4.06163 -28.338058,-10.457108 -43.462654,-9.083817c-12.182789,-0.006439 -24.360268,1.746048 -36.533777,0.915207c8.969158,-2.484848 16.883959,-7.138184 24.17964,-12.915756c1.445549,-0.898438 2.927299,-1.813721 4.586758,-2.26088z"/>
  <path fill="#585858" fill-rule="evenodd" stroke-width="1px" id="path3742" d="m302.095398,134.416458c-1.620697,0.76532 -4.26059,1.320953 -8.43512,1.175537c-7.41803,-0.258392 -13.811462,-2.219254 -21.772919,-2.706192c1.859772,4.113297 4.606262,11.221802 5.582428,15.126511c1.40567,5.622681 -1.887115,10.307602 -5.762512,12.245285c-2.605072,1.302551 -4.893585,2.446808 -7.203094,3.601547c-2.773163,1.386581 -4.789307,2.394669 -7.203125,3.601563c-3.529404,1.764709 -2.895142,4.986542 -2.160919,7.923416c0.639999,2.560013 4.591278,5.3116 5.762482,6.482803c2.273804,2.273788 4.150574,1.818329 5.762512,5.042175c1.65683,3.313705 1.391479,6.679352 0.720276,9.364044c-0.958344,3.83345 -0.835968,5.646805 1.440643,7.923416c2.286011,2.286011 4.301392,3.596436 7.203125,4.321869c3.624268,0.906067 4.552277,1.930511 7.203094,-0.720306c1.975647,-1.975662 1.408142,-5.89241 0.720306,-8.643738c-0.453735,-1.814941 -3.986908,-4.707214 -5.042175,-5.762482c-3.190796,-3.190796 2.928772,0.023758 4.321869,0.720306c3.493652,1.746826 4.602478,2.450928 8.643738,1.440613c3.147247,-0.786819 3.601532,-3.669739 3.601532,-7.203094c0,-2.594482 -4.155273,-6.316223 -5.042175,-7.20311c-2.931671,-2.931702 -2.133698,-3.601547 1.440643,-3.601547c2.589172,0 6.077789,1.95842 7.923401,2.881226c2.866486,1.433243 3.670074,5.316254 4.321869,7.923431c1.17218,4.688721 5.613129,-3.724457 5.762482,-4.321869c0.720001,-2.87999 2.864471,-4.2547 3.601563,-7.20311c0.453217,-1.812927 7.196564,-3.601547 0,-3.601547c-4.469391,0 -6.518158,-0.03537 -8.643738,-2.16095c-2.433777,-2.433777 -3.601532,-2.875031 -3.601532,-7.20311c0,-3.697144 1.626312,-5.413544 2.881226,-7.923401c1.45871,-2.917419 1.440613,-5.340042 1.440613,-9.364044c0,-2.537979 -2.782501,-6.285339 -3.601532,-7.923431c-0.322144,-0.644257 0.13504,-3.51152 0.13504,-4.231812zm202.22937,-95.056599c2.913239,6.79208 -37.863831,82.24966 -57.623138,68.415981c4.371094,-1.948547 32.963379,-52.570591 17.975586,-82.204611c4.100433,0.83375 8.199585,2.679689 12.056213,5.28924c1.37619,0.84296 11.670197,-0.790609 13.085938,-0.14257c0.898895,0.451361 3.589233,3.160301 6.530945,4.408142c2.687042,0.356499 6.134796,1.034588 6.511139,1.753609c0.749084,1.647942 0.711029,1.450619 1.463318,2.480209zm325.083252,141.066441c-2.691284,-0.890503 -10.414063,-1.313889 -18.847351,-1.775681c-5.882385,0.939621 -12.685242,-3.150024 -21.714233,-9.011917c-8.488708,-4.331238 -15.962219,-7.733597 -21.385193,-9.741257c-0.802673,2.233795 0.293396,5.165604 -5.942566,8.283585c-2.279175,1.139587 -2.160889,5.764984 -2.160889,8.643723c0,2.954163 -3.391113,5.341599 -4.321899,7.20311c-1.228333,2.456696 -3.79071,4.05629 -5.762451,5.042175c-2.448608,1.224319 -2.89209,5.085632 -3.601563,7.923416c-0.8573,3.429092 -0.002197,5.040009 2.16095,7.20311c2.200928,2.200989 7.18042,0.011337 8.643677,-0.720306c1.793945,-0.896973 2.911682,-5.823273 3.601563,-7.20311c0.796997,-1.593948 6.79364,-1.440613 9.364075,-1.440613c2.064697,0 5.791931,2.348373 7.923401,2.881241c5.616028,1.404007 7.392639,-1.213333 8.643738,5.04216c0.593079,2.965469 -7.463684,2.390808 -0.720337,5.762497c2.760986,1.380493 5.035706,2.159302 7.923462,2.881241c3.136353,0.784103 4.609009,2.052658 7.923401,2.881241c3.351196,0.837799 6.120605,1.530167 8.643738,2.160934c1.252686,0.313187 3.239624,6.479263 3.601563,7.20311c0.2995,0.599014 5.670166,-4.94986 5.762451,-5.042175c2.30127,-2.301254 4.742188,-2.085938 7.923462,-2.881226c3.428833,-0.857239 6.817749,1.524338 9.364014,2.160919c3.927979,0.981979 6.001526,0.839828 8.643738,2.160934c3.232422,1.616196 3.601563,3.066925 3.601563,7.203094c0,2.750748 -4.144531,4.2332 -5.762512,5.042175c-2.924438,1.46225 -6.980225,0.595963 -9.364014,0c-3.141052,-0.785248 -7.547791,0 -10.804688,0c-3.633423,0 -7.311035,0.442459 -10.804688,1.440628c-2.855591,0.815918 44.230469,8.716599 46.820251,9.364044c3.313416,0.828369 7.364197,0.499954 9.364014,0c2.881226,-0.720306 -2.160889,-5.673813 -2.160889,-8.643738c0,-3.440857 -0.132629,-7.733521 -0.720337,-10.084351c-0.702576,-2.810226 -3.994934,-3.274612 -5.762512,-5.04216c-2.287781,-2.287842 -3.607849,-4.347168 -4.321838,-7.203125c-0.914917,-3.65976 -3.533386,-5.368256 -5.762512,-6.482788c-2.750977,-1.375519 -3.992371,-3.07666 -6.482788,-4.321869c-3.670898,-1.835449 -4.809937,-6.01828 -6.482788,-9.364044c-1.223694,-2.447357 -5.422119,-9.924042 -7.02301,-11.524979z"/>
  <path fill="#f6f6f6" fill-rule="evenodd" stroke-width="1px" stroke-opacity="0.660714" id="path2678" d="m538.309204,55.83297c-2.853149,-1.204849 -9.327026,-3.952839 -13.119934,-5.331089c-6.493958,-4.439571 -15.979401,-9.49025 -20.623627,-11.15868c-4.606476,2.065449 -9.531586,6.089649 -14.128662,8.16732c-2.600189,1.893181 -5.401367,3.525429 -8.147034,5.15715c-1.14035,2.083988 -5.130585,7.300751 0.006622,6.599079c2.92215,-0.72506 7.020508,0.927448 3.970551,4.25396c-0.739807,3.591984 -7.653931,4.186962 -3.586456,8.020367c-1.022217,4.22258 -9.737,2.807785 -8.67276,8.415962c1.300812,4.960411 -4.3367,4.414925 -7.218933,5.278084c0.705627,5.074997 -6.320404,5.066788 -6.099213,9.739967c-0.167175,2.104263 -0.008209,7.068977 1.954926,2.671547c2.924683,-3.090759 3.867981,-8.269188 8.501984,-9.411743c0.745087,3.581467 -2.99118,8.198669 -6.563965,9.936699c-3.238068,3.218948 -7.530579,4.462578 -11.042755,7.229568c-2.508972,3.946617 -7.654755,3.313301 -11.338409,1.65358c-3.969879,-1.484383 -7.764923,1.009552 -11.151947,2.770538c-4.231598,0.258118 -5.921021,4.33567 -9.078186,6.407288c-3.684479,1.425682 -6.27005,4.921936 -9.650909,6.351273c-1.865173,-3.076233 3.038239,-8.72094 -1.069366,-10.509682c-2.276825,3.519699 -6.680908,2.935936 -10.39917,2.90554c-3.226318,0.239738 -7.475494,-0.999672 -9.542816,2.299721c1.770874,1.712029 2.055939,4.456001 -1.429108,3.710182c-4.808746,-3.197662 -8.090485,2.457428 -12.333069,3.764412c-3.401917,2.445267 -10.241577,0.831139 -10.502228,6.52446c-2.03833,0.728821 -5.606995,-5.458786 -7.285309,-0.457596c-2.814667,1.939957 -10.460846,-0.263321 -8.955872,5.636551c-0.880157,2.794601 -6.152496,0.437698 -7.638306,3.749619c-3.993652,0.673477 -7.825165,1.794922 -10.755432,4.823517c-3.652618,2.896149 -8.659027,1.612473 -12.713043,3.666824c-2.983826,0.777512 -7.684906,-3.469894 -7.63855,1.937454c0.762695,5.253082 -5.250366,2.888641 -7.921082,4.663162c-2.739563,2.530624 -5.956482,5.620331 -5.051697,9.750641c2.978271,2.093918 5.27002,5.78833 8.164276,7.41684c3.875549,-0.306351 7.413422,-2.251328 9.73114,-5.37088c3.107544,-2.457077 8.391541,2.84584 10.750885,-2.151321c2.377899,-2.809128 5.904785,-3.270416 7.173401,0.642258c3.507599,4.494156 -5.63208,2.947083 -7.940155,4.338516c-3.010895,3.427139 -9.015686,0.505905 -10.344604,6.176041c-0.803741,2.397125 -5.317627,4.361435 -4.824066,6.407913c4.320465,-0.817078 7.912048,-3.748383 11.954773,-5.389236c4.221863,-1.71196 8.476196,-4.273331 13.051605,-4.566986c-1.793213,3.501053 -1.222473,9.132401 -5.774475,10.787308c-2.487274,1.328583 -9.994171,2.099335 -7.885162,6.076569c2.945526,2.43399 5.427856,5.362534 7.920929,8.032043c4.652405,0.57074 8.212311,-2.994247 11.77475,-5.327484c2.03656,-2.834213 2.147156,-7.890701 6.379181,-8.380081c3.110535,0.355743 8.54541,-3.184265 10.239166,0.141953c-1.087616,5.013733 6.080475,3.742203 6.938538,0.248398c4.56485,-0.54982 9.505707,-1.491379 12.873169,-4.97438c-0.485413,-3.198029 -1.726898,-8.225128 3.286682,-7.953506c2.834808,-1.942627 7.061005,-2.235123 10.154816,-1.248856c-0.826141,4.005661 -3.469421,8.274582 -7.61557,9.371796c-5.12265,-0.200424 -1.340332,7.231644 1.648254,3.190323c3.191467,-3.767349 8.618164,-2.000687 12.787598,-3.772675c3.426483,-1.578903 7.173889,-1.666748 10.747498,-2.521088c3.266449,-1.561218 0.863739,-4.652634 -1.852539,-2.827148c-2.828613,1.047028 -6.105743,2.059525 -6.351379,-2.156693c-0.041138,-3.907394 -7.997375,-0.480499 -7.255219,-2.359222c4.30835,-2.185226 8.945679,-3.513046 13.371948,-5.4048c4.827759,-0.872864 8.413269,-4.624542 13.047058,-5.964188c3.208466,-1.808273 4.383179,-7.052551 8.929443,-5.871246c4.314301,-0.701935 7.838806,-4.571304 12.548981,-3.501938c1.723389,-0.190384 6.214111,1.672333 2.137634,1.732376c-3.083832,-0.673416 -9.543732,2.579422 -4.666443,5.336716c4.031036,0.389511 8.18045,-1.398529 11.540894,-3.515854c4.11969,-1.774933 8.367828,-3.212982 12.885315,-3.306335c4.856812,-0.813339 4.161835,-6.09996 2.139191,-9.106354c0.841583,-4.66185 6.822327,-5.594345 10.817841,-5.452255c4.454254,1.139572 7.667847,5.335938 11.143494,8.248642c2.303986,3.719086 7.073761,4.292191 10.939789,5.123749c4.619354,-1.404922 7.264343,2.011429 8.576355,6.030655c1.95755,2.531082 8.83371,2.418137 6.555267,7.029953c-3.026947,-0.326218 -9.972809,0.864792 -5.126709,4.63652c2.725891,1.4543 9.21521,2.414459 9.045288,-2.302521c-0.287354,-2.496872 -0.819702,-4.831604 1.222046,-6.614838c-0.315125,-2.751312 -9.898895,-4.838364 -4.155273,-7.381409c3.900696,-0.879593 8.891541,-7.14946 4.075317,-9.566467c-2.46582,0.702576 -6.23822,-0.02858 -3.453308,-3.03688c-0.890137,-4.201843 -5.91687,1.953842 -7.314789,-2.420227c-1.234619,-2.913406 2.00061,-8.04908 -3.454437,-6.788361c-2.0448,0.379921 -4.341187,-0.604805 -1.124268,-1.70536c3.949127,-0.470261 5.585846,-4.463509 1.594055,-6.533569c-3.389526,-0.107193 -3.905792,-2.808388 -1.176941,-4.629509c3.394043,-1.811646 8.183655,-5.278793 3.290894,-8.686989c-2.522461,-1.970406 -0.853882,-5.848442 1.963013,-3.090324c3.157349,2.773743 7.197876,3.697182 9.922852,6.614403c3.002014,0.730965 4.16217,-4.544601 6.558777,-0.154816c1.111267,3.439781 6.086121,-1.589134 4.576477,3.286247c-1.092834,4.235077 1.581482,8.041306 3.012085,11.813728c-2.408142,-0.812363 -5.378235,-5.439224 -8.129578,-5.628853c-1.194031,3.214981 -1.457153,7.827904 3.16748,7.68631c4.056641,0.274712 7.370117,1.655289 8.561462,5.906723c1.53656,4.076294 -3.420959,7.821625 0.624573,11.395462c4.61322,1.871735 4.704468,7.797943 9.138306,9.780487c2.702026,1.159042 6.065491,-2.030716 6.11322,2.584717c3.466187,2.86911 5.466858,7.32663 9.019714,9.894119c2.93335,1.851822 6.125977,2.956039 8.914307,0.266541c3.664429,0.287247 4.586243,5.491043 8.548767,6.199539c1.489563,3.132553 3.389038,6.601349 7.449768,6.089355c4.186401,-0.772949 6.137634,3.756271 9.53894,4.208191c2.429077,-1.431122 1.863892,-4.437851 -0.44165,-5.421249c1.82959,-4.850082 5.5448,6.152374 6.952271,-0.030731c4.669312,0.80188 -1.630066,6.95816 4.195374,6.486893c3.049927,1.538879 7.66864,-0.039719 7.754272,4.73381c1.799683,2.262482 0.334778,7.289047 4.773926,5.815323c2.81897,0.391418 3.473999,5.622864 7.418396,4.154678c3.382385,-1.904022 7.139648,-2.406525 10.960632,-2.234192c3.00708,-2.030029 6.714294,4.051712 8.538269,1.722519c-2.501587,-3.550537 -6.231201,-6.408646 -9.656189,-9.129181c-4.401611,-1.928207 -3.344238,-9.251831 -9.537292,-8.693558c-2.663269,-0.234039 -6.165771,-3.30658 -5.64917,-5.465622c3.617432,2.468811 8.023193,2.333542 11.799316,4.288132c3.048096,3.03476 5.986511,6.52565 8.941895,9.688889c2.546082,2.8685 9.229858,-0.041641 8.935913,5.589142c-1.723938,4.126663 1.640625,10.398239 6.540405,8.812317c4.379272,-1.322815 8.984131,2.371979 13.145813,-0.308868c2.166565,-2.173141 6.218445,-1.881989 6.898865,1.51561c-4.063904,-0.227997 -7.771179,1.283569 -11.643921,2.026154c-3.548828,0.216751 -7.047852,-3.243988 -10.502075,-0.941483c-1.065369,4.941971 4.667725,7.420715 8.862366,6.550827c3.320923,-0.168121 6.642517,0.350174 9.607971,1.877457c3.803345,0.056091 6.841919,3.207108 10.757996,2.725082c5.704834,0.197113 10.312744,4.108398 15.898621,4.789246c2.529236,0.207687 8.420227,2.370148 8.823425,-0.864578c-3.785645,-2.804535 -8.752686,-3.773132 -12.958923,-5.975983c-5.31311,-1.425232 1.104126,-8.131668 -3.459412,-10.509811c-2.627136,-2.119675 -6.391418,6.975601 -5.724915,1.78949c0.779175,-1.965591 2.822327,-4.688904 -0.929932,-4.537888c-3.072876,0.550537 -5.122192,-0.678879 -6.581726,-3.378738c-4.041504,-0.348541 -8.194092,-0.175568 -12.266602,-0.034302c-2.671204,-0.714569 -2.503174,1.910141 -3.231201,2.97023c-1.78125,-2.167252 -5.376465,-3.00795 -6.753235,-4.875931c2.457031,-1.571777 5.854614,-4.44397 1.643921,-6.454788c-1.693787,-2.169052 4.765503,-2.087173 2.207336,-4.98909c-1.928284,-3.522064 -2.870789,-9.666855 -7.833191,-9.799942c-5.040222,-1.039749 3.672974,-2.12825 5.414368,-1.124725c4.526123,-0.599396 8.451538,4.011353 12.870422,1.933136c2.946045,-2.806396 3.683655,-8.667618 8.559998,-8.700989c3.891907,-0.221619 7.49231,-1.33226 10.256409,-4.061295c0.550171,-1.574005 -1.920593,-4.050186 1.363647,-2.93512c4.618347,1.560974 0.840759,-2.913467 -1.287781,-3.689346c-2.027161,-3.729599 -5.888123,-5.761536 -8.48822,-9.003006c-3.737122,-0.983719 -5.554382,-3.910095 -6.983093,-7.364899c-3.86615,-3.079147 -8.440491,0.842636 -12.386597,1.853775c-3.244385,1.457306 -7.043701,1.474304 -8.360046,5.33754c-2.666077,1.19873 -8.839539,1.194824 -9.612366,-1.139191c2.199646,-0.17334 3.952881,-2.12352 0.669006,-2.561539c-3.144226,1.019623 -9.216309,-1.589981 -9.973755,2.878845c0.812195,4.42128 -5.004028,4.160065 -7.918518,5.10585c-3.878357,-0.096298 -3.842346,8.27124 -8.526428,4.923859c-3.312683,-2.360886 -7.001709,-6.568787 -11.033264,-2.751266c-3.632019,2.89949 -8.085999,3.327942 -12.550232,3.484512c-4.014343,1.240326 -5.478638,-3.509445 -8.132263,-5.040176c-5.122925,-0.03125 -5.566528,5.852585 -1.062012,7.359344c2.38269,-2.315338 4.772827,-1.944107 5.415588,1.563004c-0.145996,3.505875 8.09552,5.152847 3.936096,7.937943c-3.488098,-2.441879 -7.2052,-5.430984 -11.306763,-7.420593c-4.078125,-1.649704 -6.833557,-5.193253 -10.176025,-7.885284c-2.300598,-3.888138 -5.766418,-6.531036 -9.647949,-8.540588c-1.838196,-3.496582 -4.014282,-6.906036 -6.669861,-9.839645c-3.044495,-2.771194 -0.532959,-7.638298 -2.018311,-11.161308c-0.280334,-2.562744 -6.598816,-4.58503 -1.877319,-6.334885c2.657349,-1.164795 8.098938,-5.772751 8.294495,0.021194c0.242188,3.997276 -5.262512,6.130547 -3.256104,10.487862c0.478088,1.674301 1.888062,6.885498 1.523193,2.391113c-0.804321,-3.174759 1.967773,-7.309914 4.750061,-7.881523c0.10498,4.182327 1.610107,7.971581 3.670349,11.545265c1.084534,4.050659 2.178406,8.28212 5.074951,11.429031c1.858154,3.840805 6.846375,0.127853 7.191589,-2.034058c-2.288574,-3.155533 -6.562439,-4.645142 -7.950928,-8.424911c1.141602,-4.772385 -3.365662,-6.273056 -6.122681,-8.80471c-0.902222,-4.145149 2.21814,-7.613861 4.997864,-10.2127c1.614929,-4.11911 -0.858765,-8.33564 -2.928223,-11.796707c-1.169617,-4.316986 -5.184204,-6.607407 -6.768677,-10.60936c-1.177368,-2.707291 -5.887085,-5.122292 -1.569397,-7.57534c-0.261597,-3.819832 -4.535706,-6.666374 -3.689331,-11.001045c-3.614136,-1.977905 -7.253662,-3.766861 -8.35498,-8.142075c-3.453247,-1.52446 -7.746887,-1.36219 -9.792969,-5.196224c-1.287231,-1.437748 -1.065918,-3.467648 -1.910034,-5.15704zm-171.073486,45.076309c-1.511536,1.840431 -7.15332,6.157303 -10.878967,7.114128c-8.946381,4.649513 -19.987671,10.268364 -24.530853,11.274734c2.373688,-0.279282 5.167297,-0.078812 6.531769,2.178345c1.375519,1.91143 2.123993,4.463882 4.486877,5.447533c2.074921,1.038628 4.6091,1.959404 6.815857,0.746368c1.979736,-1.006821 3.795135,-2.331848 5.576965,-3.642525c1.666199,-1.622879 2.994843,-3.566223 3.970215,-5.665802c1.387756,-2.454178 4.420166,-3.425514 7.0979,-2.961403c2.991821,0.376793 6.602905,-0.080795 8.354553,-2.852554c1.235291,-1.521965 4.47348,-1.373055 4.139008,-3.965927c-0.136139,-2.733856 3.030457,-3.529922 4.990356,-4.506157c1.961609,-1.656136 3.920197,0.027863 5.632507,1.054688c2.310242,0.500053 3.189636,-2.189369 4.125885,-3.71981c1.67865,-1.492516 4.123566,-1.153625 6.202484,-1.436867c3.343353,-0.103691 6.928101,0.665497 10.00061,-1.068939c3.266693,-1.415749 4.924805,-4.724007 6.514801,-7.692101c0.973999,-2.06823 2.390137,-4.136887 2.040833,-6.540047c-0.371613,-2.767746 1.420197,-5.10067 2.52066,-7.481712c2.652191,-3.69297 3.625946,-8.249397 5.899475,-12.151634c1.013458,-2.165066 1.912689,-4.380947 2.803925,-6.598377c-2.250305,0.710392 -3.896179,2.56493 -6.087738,3.427639c-3.010773,1.390392 -5.919434,2.984543 -8.612183,4.926178c-2.772919,1.705643 -5.137878,3.986504 -6.970581,6.673027c-2.135559,2.994507 -3.899323,6.315765 -6.79187,8.687477c-2.327637,2.266052 -5.260406,3.751526 -7.713654,5.843849c-2.204681,2.05793 -4.344177,4.427414 -7.338348,5.299911c-5.029419,2.342148 -9.564758,6.320816 -15.337433,6.621613c-1.205811,0.287674 -2.202637,0.872856 -3.443054,0.988365zm115.522675,44.221794c0.41156,5.465454 -11.619934,6.94841 -4.983765,12.587006c3.49469,2.593002 14.446198,-7.221832 11.427704,1.042908c-2.670258,6.951599 -11.495667,5.159134 -16.827026,8.459656c-6.309357,3.438202 -12.453949,-0.674911 -18.552246,-2.243118c-3.889282,0.178284 -15.049072,-6.444717 -6.720062,-7.961319c7.669739,0.214722 14.760284,-2.892792 20.221313,-7.685638c4.377899,-0.586441 2.91394,-7.470322 8.873413,-5.965073c2.37146,0.092789 5.208191,-0.839874 6.560669,1.765579zm20.52887,21.249191c-5.475464,1.52446 -11.202148,-5.667664 -14.25769,1.131897c-6.572144,2.372772 -14.072174,9.694016 -20.852325,4.127655c-3.336151,3.338806 -15.795929,2.720352 -9.919403,9.939301c5.615601,3.655197 14.595825,-0.527374 18.704865,6.202927c4.34137,5.730103 12.695618,5.807831 19.278809,6.098358c5.82785,0.537567 11.341827,3.574753 16.774719,1.259552c2.612976,4.703094 4.68042,-0.14238 1.228821,-2.086258c0.749695,-4.183563 7.509583,4.687576 11.142029,1.834045c4.732361,-1.036987 17.502808,3.029663 13.811584,-5.554184c-4.699951,-4.995514 -5.982178,-15.255722 -14.92627,-12.26059c-6.053345,0.362946 -12.57663,-1.318481 -17.383606,-4.930237c-1.44162,-1.826569 -1.297302,-4.561691 -3.601532,-5.762466zm10.444489,41.77803c-6.369965,-2.848358 -13.950653,-3.188538 -19.448395,-7.563278c-6.390015,-2.658188 -13.53299,-0.967041 -20.259521,-1.429703c-4.359863,-1.463318 -9.725311,-6.817535 -14.857941,-3.652817c5.438263,2.505188 10.606079,5.024628 13.382813,10.375137c6.666351,1.895096 13.1297,3.787247 18.518158,8.306992c5.712616,1.662338 12.68457,2.770279 18.163025,0.110657c2.996368,-0.735458 5.391632,-2.783829 4.501862,-6.146988zm31.333557,-53.303024c-2.122375,6.514832 4.030396,12.588867 10.25,14.66304c4.468079,3.668533 -4.880127,-2.667297 -6.684875,-2.826355c-2.934692,-2.90979 -13.737,-10.532379 -11.39856,-1.662292c3.983398,4.000549 -5.939087,-2.642197 -8.013428,0.270111c-6.5802,2.311172 -0.031067,10.722916 5.449768,9.781097c7.473389,1.555649 13.570496,7.304947 21.361816,7.603485c1.163696,2.104874 8.848083,6.3797 4.521912,1.343506c-3.315613,-4.475159 2.029419,-11.354736 -2.909363,-16.216797c-3.668335,-4.933289 -11.782593,-5.571686 -12.577271,-12.955795zm29.172546,29.532745c-4.493225,-1.811539 -16.054871,-2.356247 -8.892517,4.856689c3.007446,3.882401 10.955322,8.502548 11.292358,11.769272c-5.058228,-1.755219 -9.008911,-7.232834 -13.496338,-8.531631c1.139099,2.610077 3.850525,5.658615 -0.788635,2.710342c-6.046021,-1.196121 0.806702,5.415146 2.846191,6.78038c6.091797,4.457489 12.606934,8.318893 19.467041,11.319199c2.696045,2.326859 10.317139,4.917084 3.440918,0.980438c-3.241943,-2.94191 -11.766296,-5.766266 -10.937988,-9.885651c6.985046,2.736664 12.001648,9.492859 19.555542,11.279724c2.64447,2.335663 11.833496,6.316696 8.321167,-0.862762c2.318359,-6.328522 -5.203735,-12.536316 0.490906,-17.190186c-0.792236,-9.812637 -10.750122,-5.339523 -15.451782,-1.340683c-3.821594,0.188293 -6.863586,0.960098 -3.241394,4.682037c2.689087,7.12915 15.815918,1.807114 14.691589,11.128433c-2.266663,2.610931 -5.715576,-4.684372 -9.469177,-3.956207c-5.79126,-3.732208 -10.605347,-9.191299 -13.505981,-15.455826c-1.355774,-2.869537 -3.735474,-5.03653 -4.321899,-8.283569zm48.260803,48.260849c-6.737976,0.423569 -4.310059,10.142868 1.440674,5.762466c4.187195,-2.014374 2.467468,-5.179886 -1.440674,-5.762466zm72.391296,-45.01944c-5.817932,-0.152527 -6.550171,9.251022 -12.359314,3.486755c-1.84137,-3.638916 -6.097778,-5.759033 -9.137939,-8.185333c5.120056,-1.621841 9.025696,3.808258 12.133179,5.779037c1.662598,-4.170547 7.690247,-7.847 9.364075,-1.08046zm-92.452576,-86.459167c6.430359,3.051201 15.614502,4.829445 21.947632,4.447334c-2.325562,3.819916 -6.697632,6.953896 -8.369141,11.421349c-7.003113,1.789558 -14.446289,3.103233 -21.27356,4.898438c-2.786682,-1.554375 -3.008789,-5.862541 -7.015808,-6.368958c-1.768555,-7.025459 7.368225,-5.268852 7.865112,-11.303223c1.719543,-1.682426 5.445007,-0.925438 6.845764,-3.09494zm141.644653,52.81366c1.489685,0.062134 2.949951,0.246323 5.519775,1.202576c3.206543,0.255951 8.66864,1.53862 11.413208,2.33342c-4.442993,0.698273 -10.18573,10.814148 -13.217224,11.126144c-1.003479,-4.398422 -2.875,-10.266083 -3.715759,-14.66214zm-7.77417,39.047806c-3.381042,6.331406 -12.473938,6.3853 -16.596252,12.159302c-6.598206,0.154907 -12.091248,11.757248 -18.211304,3.819519c-3.082336,-4.09346 -6.122803,-8.146729 -2.223145,-12.868149c2.868408,-6.162445 12.127686,0.960464 17.059265,1.174805c5.969238,-0.757248 14.601318,2.287842 15.771057,-5.443863c1.464294,-0.529694 2.972656,0.521011 4.200378,1.158386zm18.007751,-12.965546c-0.948486,1.005219 -10.770264,6.480652 -6.177551,-0.1091c1.056335,-3.260254 8.048523,-5.759598 6.177551,0.1091zm-9.724182,-3.241425c-3.658569,0.799881 -7.124573,1.918945 -4.873108,6.5914c2.469727,-1.03952 7.524841,-2.99118 4.873108,-6.5914zm53.302917,15.846832c-4.908264,0.729538 -8.72229,-9.021652 -1.865112,-10.136292c8.145752,-0.575073 1.66571,11.365952 10.055969,10.592926c8.438049,3.255966 -3.431152,12.796204 -8.550964,8.547256c-4.794189,-0.728104 -7.346619,-9.829605 -0.360168,-6.482788c2.409058,1.934082 7.75415,3.339951 3.528748,-1.093262c-0.324097,-1.325333 -1.585083,-1.837479 -2.808472,-1.427841zm-42.858459,15.126526c-3.824707,-1.829193 -15.559998,-1.582458 -9.605347,4.445175c4.604614,-0.606873 11.409485,2.750748 14.770691,-0.128082c-0.726501,-2.196899 -3.817871,-2.517258 -5.165344,-4.317093zm-40.69751,10.444534c4.795776,-1.482483 12.991028,-0.70079 18.126526,2.788681c3.375183,1.123886 12.701416,5.641571 3.842896,5.494888c-7.445435,-0.190277 -15.058044,-3.102554 -21.258728,-7.036118l-0.710754,-1.247467l0.000061,0.000015zm36.73584,-0.000015c1.872375,-3.499161 2.188965,1.706451 -2.16095,0.000015c-4.349915,-1.706451 -12.004028,6.6996 -3.887878,5.942673c5.652283,-0.965973 4.176453,-2.443542 6.048828,-5.942688zm3.601563,1.800797c-3.113586,6.783585 8.846863,8.407349 13.766418,6.455658c7.523376,0.962372 15.559692,0.335098 22.538269,3.983521c5.652649,2.569962 16.024353,3.070374 18.484375,-3.951401c-1.066956,-8.162308 -12.348694,-4.84726 -18.04126,-7.869141c-7.121948,-3.555527 -13.56366,5.775757 -20.084778,-0.215378c-5.738831,-3.153488 -10.200378,5.944687 -16.663025,1.596741zm81.034912,-9.003891c-4.716003,3.083099 -17.23468,-0.619095 -10.085938,-6.80069c4.357544,-1.862656 9.687012,2.396011 10.085938,6.80069zm-18.728088,12.965591c-1.803223,7.192841 8.134155,7.192871 12.481628,5.333969c-1.280823,-4.606506 -8.322021,-2.23645 -10.201416,-6.51944l-1.034302,0.432129l-1.245911,0.753342l0,0zm57.264771,23.41011c-2.298767,-4.552704 -13.1474,-5.429947 -7.492737,-12.082108c6.313293,-3.381851 12.013428,4.551865 17.604858,-0.164886c4.644165,-1.231461 15.543945,0.917984 13.800842,6.920654c-5.631226,4.235397 -12.968811,5.899124 -20.049133,5.846893c-1.300232,-0.059357 -2.588806,-0.26857 -3.863831,-0.520554zm-2.881226,-51.862396c0.94519,7.871094 -9.410339,7.882584 -14.77948,8.987335c-9.354797,0.518326 -13.067017,-9.362762 -18.599304,-14.887543c-4.481262,-2.645538 -14.091125,0.038422 -15.277893,-5.926788c4.718018,-0.67337 8.207947,6.310913 13.558594,2.657471c7.675354,1.134613 15.278198,2.092758 22.852783,3.04689c3.609192,3.153229 10.425415,0.843033 12.2453,6.122635zm-51.862366,-3.9617c-2.949829,1.404724 -5.084167,-2.728683 -6.122681,-5.042191c-6.484192,0.148483 2.995789,4.826813 3.491943,7.793549c3.184082,2.924835 7.751282,-1.591034 2.630737,-2.751358zm-191.242615,-66.628769c1.023438,3.410004 3.923157,8.507675 8.37915,10.409332c-1.841797,2.258804 -7.016541,1.4702 -4.417419,6.517975c-4.444641,6.869614 -11.486206,-0.345795 -16.45282,-2.682083c-2.275635,0.8582 4.906982,6.82402 6.468323,9.185516c3.12146,6.75116 -6.328857,-0.035919 -8.023254,-2.18158c-3.247681,-3.320419 -9.143311,-3.515411 -6.801697,-9.530762c-0.82843,-5.305908 8.035156,-2.060822 7.274963,-8.343155c1.55072,-5.908104 9.136963,-5.272957 13.572754,-3.375244zm-402.293625,43.578812c-1.205933,4.578461 -5.125443,2.419006 -7.642303,0.421906c-5.602646,2.464676 -11.478683,4.215057 -16.488113,-0.782059c-7.344452,-4.011444 -15.40744,0.975372 -22.834381,2.420227c-3.112228,2.109818 -15.229019,1.252594 -7.0327,-2.473022c6.789566,-2.357758 14.414963,-1.937988 20.749039,-5.754761c8.29567,1.021103 15.790955,-5.115326 24.030945,-1.797409c2.895462,3.214249 5.656845,5.01976 9.217514,7.965118zm-60.866272,17.647598c-1.06575,0.506622 -15.7659,0.252884 -7.923416,-3.241379c2.721924,-0.022156 8.334351,-1.251846 7.923416,3.241379zm257.871323,-4.321854c-1.260315,1.897949 -9.850372,8.778076 -7.923431,0.360153c1.430969,-2.078308 5.802551,-1.082794 7.923431,-0.360153zm-38.536652,18.007767c-2.873505,0.6073 -4.681549,10.65213 -8.643738,4.321869c-5.295685,-5.469147 5.816681,-7.659851 8.643738,-4.321869zm68.069366,-170.353525c-0.383087,0.76622 -0.360138,3.852041 -0.360138,5.762491c0,1.636559 -0.360138,3.061188 -0.360138,5.042179c0,0.95208 -2.091888,2.02277 -2.521118,2.881241c-0.723389,1.446808 -1.07309,2.4916 -1.440613,3.961708c-0.333588,1.3344 -0.360168,3.216633 -0.360168,5.042171c0,2.340729 -0.44397,3.048901 -1.080444,4.321869c-0.723816,1.44762 -1.414825,2.057781 -1.800781,3.601551c-0.37616,1.50462 -1.442596,2.168869 -1.800781,3.601559c-0.333588,1.334404 -0.360168,3.216629 -0.360168,5.042168c0,1.800797 0,3.601563 0,5.402344c0,2.377098 -0.688965,2.45845 -1.440613,3.961723c-0.768341,1.53669 -1.080444,2.119965 -1.080444,4.321854c0,1.720421 0.066284,3.866776 0.360138,5.042175c0.428009,1.71209 0.374908,3.660606 0.720306,5.042175c0.547272,2.189095 -0.405029,3.286285 -1.440613,4.321861c-0.89624,0.89624 -0.817749,3.271057 -1.080475,4.321861c-0.488831,1.95536 -0.346924,2.891167 1.080475,3.961708c1.594482,1.195885 2.272308,1.024803 3.601532,0.360161c0.346863,-0.173431 0,-4.819603 0,-5.402336c0,-1.629791 -0.720306,-2.771767 -0.720306,-4.682014c0,-1.397896 -0.360138,-3.399773 -0.360138,-5.042175c0,-2.316086 0.692047,-2.76828 1.080444,-4.321877c0.41098,-1.64386 0.989807,-2.158325 1.440643,-3.9617c0.318817,-1.275276 1.130493,-2.721169 1.440613,-3.961693c0.392639,-1.570534 0,-3.773911 0,-5.402344c0,-1.103592 1.145752,-2.782173 1.440613,-3.961723c0.37973,-1.518829 -0.1185,-4.075645 -0.360138,-5.042168c-0.395477,-1.58194 -0.360168,-3.10207 -0.360168,-5.042179c0,-2.390331 1.280762,-4.142239 2.16095,-6.122639c0.582031,-1.309589 1.349335,-2.42981 2.160919,-3.241402c0.777191,-0.77718 1.080475,-2.842579 1.080475,-4.321869c0,-2.380371 0.359863,-2.880699 1.080444,-4.321861c0.700043,-1.400028 1.452484,-2.568439 1.800781,-3.961708c0.362946,-1.45166 0.363983,-3.226162 0,-4.682022c-0.2547,-1.0189 -1.487671,-1.901039 -2.521088,-2.52109zm7.923431,21.609331c-0.396027,-1.584129 3.565674,1.297119 3.9617,2.881241c0.405579,1.622257 0.324707,3.383259 0,4.682018c-0.330688,1.322769 -1.658936,2.237461 -2.160919,3.241402c-1.469757,2.939526 -2.752991,4.785717 -3.601563,6.4828c-0.526642,1.053246 -1.826385,2.186546 -2.521088,2.881241c-0.559052,0.559059 -1.258575,3.233604 -1.440613,3.961708c-0.545105,2.180389 -2.241547,1.279411 -2.881226,0c-0.478027,-0.955963 1.395416,-3.196213 1.800751,-3.601547c0.625214,-0.625214 1.43985,-2.879715 1.800781,-3.601555c0.697601,-1.395226 1.147766,-2.295547 1.800781,-3.601555c0.633881,-1.267784 1.449219,-2.195313 1.800781,-3.601563c0.37558,-1.502411 1.258331,-2.516682 1.800781,-3.601551c0.786896,-1.573841 -0.360168,-4.63298 -0.360168,-6.122639zm194.123749,109.127098c-5.930237,-3.670029 -14.700012,5.313721 -3.951904,5.224686c4.466675,2.427902 8.771484,-1.603821 3.951904,-5.224686zm-138.659851,-109.127098c-2.374817,7.210117 -25.885773,10.780479 -13.149353,18.358917c5.878723,1.095932 5.10556,-7.442879 8.880402,-1.258591c5.783966,1.281723 12.875763,-10.695797 12.99527,-0.795685c7.310852,5.586334 17.156433,-6.565472 4.874207,-6.883873c-5.839294,0.665062 -15.716431,-1.10429 -5.536926,-5.429211c0.257813,-3.73209 -5.961426,-2.184929 -8.063599,-3.991558zm-18.367889,33.494446c-11.541779,-0.79464 -0.66391,13.983574 2.183502,2.050362c5.385437,10.644943 10.534821,-9.123711 0.954437,-3.335312c0.025421,2.672112 -1.862061,2.500244 -3.137939,1.28495zm17.287445,-5.042168c-2.966431,-11.38884 22.370728,-5.062653 7.623535,0.68177c-6.179199,1.972282 -9.991699,10.967598 -0.518677,5.420418c6.297913,-1.72715 16.235657,-0.03862 9.700562,-5.682983c16.881958,-2.056877 1.083252,9.176216 -4.567078,11.368103c-6.815979,1.630234 -8.249939,2.196609 -0.965759,5.433006c-1.540283,3.644318 -9.460571,3.934875 -6.794678,-1.516312c-4.722778,-2.880875 -16.724823,10.051537 -12.041138,-0.937645c5.631287,-2.508293 6.315002,-9.467873 7.563232,-14.766357zm20.168762,35.29525c0.511169,3.174774 3.712646,7.258873 5.402283,3.459473c0.765991,5.247047 6.648315,3.047905 1.867676,7.541237c0.920288,1.933784 -1.867859,3.803055 0.198975,8.044464c-5.608093,6.438995 4.691528,5.769974 3.589661,0.032288c3.950867,7.270081 -0.411743,-5.342392 6.588989,0.731079c2.373352,-6.146576 -8.746643,-5.574203 -5.762451,-12.605446c-5.494812,-1.041237 -5.898682,-16.153687 -11.885132,-7.203094zm-81.75531,7.923424c-11.992798,1.524117 3.056,10.397781 0,0zm-116.330231,40.337387c6.461334,-1.768204 3.889893,9.751114 11.366302,2.8759c7.416229,-2.133286 18.015717,-3.334229 18.166473,-11.879776c7.686615,0.16394 25.164734,-10.293762 21.989777,-13.541016c-10.075897,4.158676 -19.541809,10.715363 -30.943329,9.554306c-10.881927,9.828018 -21.78067,-5.363068 -31.738617,4.088058c3.348846,2.075455 21.036987,-2.40419 10.794373,5.771179l0.040558,1.065125l0.324463,2.066223l0,0z"/>
  <path fill="#323232" fill-rule="evenodd" stroke-width="1px" stroke-opacity="0.660714" id="path3744" d="m464.677216,25.57123c4.202606,1.356319 10.421234,2.481781 12.292145,6.643339c0.128082,3.00436 -0.979797,5.841412 -2.104462,8.529202c1.190948,3.444828 6.632019,5.66188 4.619934,10.392689c-1.065125,4.66621 -7.899933,-1.798271 -8.799133,4.101933c-1.267181,4.636467 -0.521484,9.638302 -2.172882,14.224834c-1.022308,5.238167 1.529175,11.524673 -2.294708,15.977791c-2.69574,2.734436 -8.22995,3.160027 -7.116394,8.366837c1.582123,4.403336 -1.725098,7.70813 -5.779541,8.979965c-2.287964,2.577599 -9.414368,4.872574 -5.849304,-0.660881c2.406433,-2.758728 8.480103,-5.647224 4.553925,-9.913651c-2.399719,-3.91423 5.243927,-3.371895 5.795532,-7.218338c2.494598,-1.078003 3.802155,-6.947861 -0.348541,-4.950371c-3.125916,3.275558 -6.67337,6.228813 -10.299957,8.910934c-1.548767,4.400505 -4.601257,7.518959 -8.175873,10.280067c-2.189087,3.482277 0.119354,11.036491 -6.286713,10.302048c-4.575806,-0.07962 -6.777344,4.498459 -10.086151,6.769241c-4.305786,2.182991 -2.715179,-3.638687 -2.533905,-5.670242c-3.940735,-0.895241 -1.874756,-7.319267 1.23819,-6.55101c0.472931,3.1744 3.826599,2.878456 4.441986,-0.294769c2.467499,-2.90506 3.785095,-7.163116 7.67984,-8.555c3.537689,-1.560356 6.437744,-4.157845 9.923279,-5.82415c4.31427,-2.529449 6.572357,-7.165367 9.499573,-10.970795c2.892029,-2.48423 7.135498,-3.938416 8.151276,-8.047569c1.529602,-4.150574 2.325806,-8.582565 4.41391,-12.486263c0.18512,-3.1166 -3.095947,-5.911221 -0.315765,-9.036041c1.892059,-4.222279 1.521729,-9.77261 -2.173676,-12.928959c-2.337524,-1.924721 -4.745605,-6.997169 -0.186157,-7.70154c1.115814,-0.36697 2.271912,-1.36734 1.913574,-2.6693zm-71.597534,87.866163c-3.835815,1.222336 -3.322388,6.976036 -8.460632,5.857094c-4.922485,2.631386 -9.25174,7.460342 -15.164581,7.533554c-5.848328,-1.099724 -9.499115,4.409904 -14.933075,4.994316c-4.407684,2.141159 -5.749329,7.664658 -11.628326,7.164459c-5.624084,2.223511 -10.600464,5.68956 -16.544983,7.054886c-4.652588,1.44606 -10.365448,-0.881195 -14.303375,2.690918c-1.388184,5.95311 -8.97757,4.603317 -12.605469,9.003906c-3.31723,4.7798 0.778625,9.917984 1.263794,14.950241c-1.942474,5.198105 -8.100586,1.259003 -11.931946,2.215958c-4.037201,3.522049 -5.967651,8.937607 -9.123718,13.310577c-5.29071,3.694855 -6.123138,-5.864838 -0.376831,-5.2659c6.183136,-2.126587 6.89444,-9.987198 13.154541,-12.015411c7.259186,-0.439865 4.445251,-7.794754 3.05246,-12.115021c2.269928,-4.95816 10.09494,-3.889664 12.2453,-9.364029c0.408661,-4.714355 2.789368,-9.396606 8.283569,-6.482819c5.157257,-0.82103 8.571625,-6.274902 14.243042,-5.105545c5.90799,-1.039337 11.113037,-4.588135 16.574005,-7.061584c5.540344,-3.23307 12.238159,-3.731583 17.37854,-7.798355c5.193756,-1.062546 9.957642,-3.315117 14.656982,-5.87838c4.554962,-1.117142 4.176849,-6.509186 2.687561,-9.645889c2.022705,-3.268463 7.773743,-1.394226 3.609711,1.995323c-1.925812,3.648865 2.48819,7.596298 5.568817,3.792931c0.789734,-0.199455 1.580902,0.045433 2.354614,0.16877zm-126.414551,20.889008c0.479553,2.262024 1.506256,4.592361 0.815063,6.923691c-1.435913,1.943237 -4.133881,1.605392 -6.229065,1.306091c-1.954681,-0.534622 -5.852554,1.865891 -3.352112,3.681213c1.995636,0.717545 4.283936,0.762177 6.372955,0.461655c2.128876,-0.947937 3.880707,1.078857 2.689178,3.036499c-0.699097,1.861038 -0.803864,4.277267 -2.632477,5.443192c-2.558136,0.868042 -5.310181,0.131073 -7.949249,0.402527c-4.582321,0.257935 -9.169266,0.504913 -13.759033,0.325638c-2.87233,-0.013092 -5.754181,0.312561 -8.613571,0.29071c-2.344955,-0.618347 -3.215927,-3.141556 -4.861954,-4.626282c-1.649002,-1.111618 -4.135147,-0.947647 -5.234695,-2.834045c-0.048782,-2.150558 2.481506,-2.485275 4.039001,-3.036865c2.51387,-1.018219 5.22168,-1.41156 7.76207,-2.326569c1.783401,-0.749908 3.38031,-1.96431 5.353973,-2.185364c1.708115,-0.321335 3.449326,-0.761627 4.849838,-1.83931c4.981781,-2.550766 10.638351,-3.154343 16.100815,-3.91777c1.582458,-0.06601 3.423767,0.115433 4.649261,-1.105011zm264.714203,-6.48278c1.929932,0.545204 4.209595,1.357124 5.076782,3.328896c0.617432,1.633179 0.047302,3.80513 -2.096985,3.546021c-1.183472,0.095016 -3.693787,0.199417 -2.286011,1.96553c0.772339,1.333389 3.164795,3.864731 0.808105,4.866379c-1.819641,0.842758 -3.829163,0.391388 -5.602478,-0.320221c-1.792297,-0.409576 -4.004272,-1.158401 -4.435913,-3.201614c-0.280579,-1.970505 -1.263245,-3.698593 -3.423401,-3.919266c-1.369324,-0.746567 -3.687866,-1.774048 -2.806458,-3.744644c0.684448,-2.010635 -1.911072,-2.615257 -2.96521,-3.822342c-1.46106,-0.941666 -2.092194,-2.651695 -2.907562,-4.104576c-0.393188,-1.718559 -0.114319,-3.647545 -1.332581,-5.111794c-1.069092,-1.473396 -1.707947,-3.413857 -0.326447,-4.932281c1.00293,-1.41227 2.567749,-2.912239 1.877655,-4.823769c-0.364258,-1.755615 -1.542633,-3.379509 -1.545227,-5.150177c0.559784,-2.565193 3.286407,-0.362213 4.591278,0.35955c1.958069,0.974861 1.810669,3.744926 3.813232,4.674049c1.750427,0.873238 2.589722,2.879547 4.447571,3.602257c1.501648,1.079071 2.525269,2.823463 2.973328,4.595833c0.40625,1.99794 -0.630066,4.31591 0.827698,6.035431c1.310913,1.833115 3.383911,2.921906 4.785156,4.648338c0.152893,0.510628 0.325562,1.014923 0.527466,1.5084zm-18.007751,-14.406227c1.672668,1.488884 2.893555,3.457687 3.224121,5.69323c0.512024,2.043976 0.868347,4.194054 2.184143,5.912399c0.636597,1.518806 1.82251,2.654655 3.07135,3.676674c1.369019,-0.93586 0.079102,-3.581429 0.660889,-5.138565c0.425659,-0.785042 0.381836,-3.647179 -0.530518,-1.662529c-0.358398,1.54995 -2.384705,3.500267 -3.175598,1.100029c-0.984741,-1.710609 -0.950012,-3.69873 -1.134644,-5.5933c-0.370361,-2.152069 -2.491943,-2.826012 -4.087158,-3.831299l-0.212585,-0.156639l0,0zm99.763062,37.816299c-9.479736,0.102966 -20.223328,-0.569168 -12.752747,-12.362564c-1.80481,-15.594177 -9.222473,4.585663 -7.598572,9.472687c-13.299011,-0.685196 -4.464172,-20.074463 4.864624,-20.880363c-1.125,-11.355164 26.613525,1.533821 11.753235,5.828453c-7.758179,5.254227 9.135437,10.694641 3.733459,17.941788zm-18.36792,-50.061592c-5.066284,-9.855217 -18.132507,1.177742 -24.490601,-9.72419c-4.484375,-9.510963 -7.103882,-0.617767 -0.720276,3.241386c7.573425,1.989189 6.737732,17.6689 13.769043,15.338654c0.293457,-9.813583 8.986816,-1.539558 11.441833,-8.85585zm64.107666,29.1726c0.168884,6.985168 -16.239563,12.09549 -12.965576,0c4.650635,1.822571 9.246216,-2.897072 12.965576,0zm-9.003906,-3.241402c-12.120911,3.016228 -0.034851,-11.40554 0,0zm-9.724182,2.160927c-1.629395,-4.590523 -9.742249,-4.165657 -4.682007,2.160934c1.353394,1.552536 5.794189,0.307449 4.682007,-2.160934zm-3.241394,10.804672c-3.547852,1.888 -5.513733,6.212219 -7.563232,7.563248c3.248657,2.424698 7.657043,-5.521255 7.563232,-7.563248zm72.391296,20.52887c-12.25824,0.696564 3.709534,17.35408 -5.424133,17.98288c-1.49231,-6.504959 -8.425293,-21.036331 5.424133,-17.98288zm19.448364,-3.601563c0.404358,10.901474 -14.236755,16.546097 -15.080566,26.900589c6.835327,2.434952 8.720337,-15.991272 12.84198,-12.101364c-1.071655,-4.57225 11.452942,-13.894714 2.238586,-14.799225zm6.842957,-0.360138c1.453003,6.981674 -6.939392,13.93956 -9.230286,20.810303c-7.08075,2.891495 4.894104,10.490067 3.107605,0.078705c1.368652,-8.11174 6.46814,-9.85022 4.887695,-1.336746c3.093445,-3.258392 3.647583,-25.194611 7.649658,-12.518051c6.464844,-5.053162 -0.644348,-9.672791 -6.414673,-7.03421zm5.042175,10.804642c-2.985229,4.733734 1.778931,13.169342 2.64978,3.028168c-0.150757,-1.466858 -1.433105,-2.442947 -2.64978,-3.028168zm34.57489,14.406219c-1.537903,9.778931 10.755432,-1.518158 13.817017,7.672943c1.588806,-7.307327 -7.652893,-11.191254 -13.817017,-7.672943zm59.065491,48.98114c6.071167,-8.463486 -10.802429,-9.024857 -0.490845,-15.924271c8.391968,-0.237854 16.229004,3.391006 10.408752,10.318176c1.050354,6.651718 13.261169,7.551422 6.585571,15.453491c-6.458679,-0.630417 -5.875488,-6.279297 -9.300354,-10.567703c-0.913879,-9.347687 -3.130615,-2.599319 -3.626282,2.212891c-1.313782,0.53038 -2.627686,-1.010239 -3.576843,-1.492584zm-399.052216,-33.134293c-0.614166,-6.601517 -1.485596,-14.246216 -7.843597,-17.952621c-1.475952,-18.452911 12.137665,4.634521 16.667389,10.02919c12.652557,2.444122 11.208832,16.672668 25.390961,20.168716c9.526123,8.625763 22.542419,10.570633 33.987122,13.273209c13.130066,4.520004 18.532166,2.024887 12.472961,-11.832596c7.69751,-12.63501 27.456848,-3.205475 34.214722,6.482803c12.576721,4.179626 0.23053,8.760605 -4.682007,1.440628c-5.656921,-10.980301 -7.789856,-0.71283 -6.326599,5.524033c-18.61908,4.857529 2.310059,7.546097 9.867065,9.195251c-5.739929,-10.515717 10.095642,-7.929565 17.348572,-0.31308c16.62146,7.290634 -7.575623,-10.923645 3.078979,-13.396927c-0.493774,-8.432449 -27.444824,-13.987396 -6.320374,-15.77565c11.34021,1.291595 21.869568,10.859024 15.421387,21.698914c-8.014221,16.842667 17.202637,15.80957 10.149658,-0.809906c-8.632813,-11.825851 5.699829,-6.100235 10.797974,-2.266998c2.396362,4.895386 24.308594,7.696533 12.846252,10.61702c-13.334229,-9.942368 1.461304,5.635132 8.049438,6.056198c8.094727,9.376541 10.540466,2.822876 16.96582,-3.905899c2.974792,5.901428 13.461121,4.913208 5.702759,-3.249069c0.378479,-15.965485 -18.114746,12.675125 -12.584229,-4.37001c14.684509,-5.753281 -4.765198,-7.986862 -5.852417,-16.860641c-2.381165,-13.784531 11.38208,-4.912994 13.133911,2.352707c15.79187,13.041534 -5.963257,-24.285934 7.637268,-9.317749c-1.492798,18.158646 21.195618,3.358124 19.296021,20.224136c12.7453,-1.007645 29.331238,3.770401 43.578796,5.402344l-2.89978,1.84874c-12.446411,-0.371002 -25.249756,-1.574051 -37.337219,2.17662c-9.970764,2.771576 -19.997925,5.400238 -29.81842,8.466843c-11.068481,7.330292 -24.984802,3.289612 -37.312073,3.215485c-10.861328,-0.397552 -21.532104,-1.835037 -31.810242,-5.518784c-17.954163,-5.619141 -36.578918,-8.42569 -54.936646,-12.312637c-12.118439,-2.606827 -24.32843,-5.354477 -35.285583,-11.392044c-8.2323,-3.687393 -16.165833,-8.014145 -24.476257,-11.378937c-6.823517,-4.504227 -17.437256,-12.705948 -23.935272,-3.499405c-8.910736,4.32811 -19.104645,4.242065 -26.660431,11.454407c-5.40329,9.296341 -14.436615,14.640579 -25.500397,12.468079c-10.242981,2.620453 -20.411163,0.063843 -30.482574,-2.029739c-11.422607,-2.470367 -22.443695,-6.529282 -34.196442,-7.288696c-10.395233,-2.194275 -20.954681,-3.312851 -31.51059,-4.397003c-11.023865,-1.391388 -22.874512,0.429306 -32.939926,-5.251678c-1.421692,-2.43959 -2.15715,-3.79158 1.704422,-3.572937c8.903748,0.578796 18.890991,-4.582504 20.52887,6.842972c17.978424,0.562561 36.623596,-3.447556 53.07077,4.289307c7.293884,-4.912323 7.178833,-16.647766 18.960327,-9.331482c2.869995,-1.294891 -3.421661,-6.989838 5.762482,-7.20311c0.447968,-6.977432 9.621552,2.31134 11.171967,-4.844406c-1.703552,9.920929 19.214203,19.590393 5.476135,6.681412c-5.558655,-12.963867 7.869019,-4.187866 5.994415,3.703995c3.950134,8.6091 31.668365,7.536011 13.859619,-0.727081c1.595459,-11.98201 24.038788,10.274719 22.203186,-5.534241c1.614166,-4.482071 14.982544,-0.62059 5.762512,5.402328c0.43103,1.75145 2.600555,1.969482 3.601532,3.241394m-309.013367,14.991501c-0.98996,-3.848953 -6.156677,-5.751953 -3.126076,-7.85997c3.786583,-0.37442 7.579536,1.93985 11.312653,0.355499c5.179855,-1.608276 10.739365,-0.436234 15.905571,-2.164505c6.746613,-1.678055 13.781113,-0.75473 20.657166,-1.000641c3.886963,0.364456 7.475586,-1.387939 11.033417,-2.615555c1.531509,-0.916458 4.797928,-4.270859 0.787781,-3.52594c-3.86676,0.279282 -7.87149,1.199707 -11.614243,-0.307999c-3.66423,-1.643646 -5.387192,4.145309 -9.143448,2.564117c-4.153275,-1.396744 -8.503052,-2.071167 -12.890381,-1.877853c-5.704872,-0.456635 -11.025116,2.050858 -16.663055,2.296829c-4.829369,0.349564 -9.417717,2.428543 -14.330833,2.024551c-1.567734,0.250198 -6.259644,-0.153748 -2.724403,-1.789841c3.961754,-1.966492 8.59169,-0.164444 12.728943,-1.480515c3.781822,-0.860901 7.863403,0.424728 11.496887,-1.013702c0.397308,-2.39946 -4.953865,-1.137375 -6.722084,-1.477219c-5.625221,-0.009521 -11.359818,-0.32373 -16.792236,1.440628c-2.212585,0.840027 -2.523804,-0.189468 -0.270821,-0.917099c3.08107,-1.260941 7.389069,-2.080902 7.473915,-6.286011c-4.851898,1.103058 -9.141479,4.168976 -14.196716,4.557083c-3.851578,1.004745 -7.830475,1.236816 -11.734474,1.92572c-1.669525,1.863098 -3.423744,5.297485 -3.226158,7.33606c4.473259,2.409256 26.761497,9.985916 32.038597,9.81636z"/>
 </g>
</svg>