<?xml version="1.0" encoding="UTF-8" standalone="no"?>
<svg
   width="189px"
   height="256px"
   viewBox="0 0 189 256"
   version="1.1"
   id="svg7"
   sodipodi:docname="javablack.svg"
   inkscape:version="1.3.2 (1:1.3.2+202311252150+091e20ef0f)"
   xmlns:inkscape="http://www.inkscape.org/namespaces/inkscape"
   xmlns:sodipodi="http://sodipodi.sourceforge.net/DTD/sodipodi-0.dtd"
   xmlns="http://www.w3.org/2000/svg"
   xmlns:svg="http://www.w3.org/2000/svg"
   xmlns:rdf="http://www.w3.org/1999/02/22-rdf-syntax-ns#"
   xmlns:cc="http://creativecommons.org/ns#"
   xmlns:dc="http://purl.org/dc/elements/1.1/">
  <defs
     id="defs7" />
  <sodipodi:namedview
     id="namedview7"
     pagecolor="#ffffff"
     bordercolor="#000000"
     borderopacity="0.25"
     inkscape:showpageshadow="2"
     inkscape:pageopacity="0.0"
     inkscape:pagecheckerboard="0"
     inkscape:deskcolor="#d1d1d1"
     inkscape:zoom="3.1875"
     inkscape:cx="94.431373"
     inkscape:cy="128"
     inkscape:window-width="1850"
     inkscape:window-height="1016"
     inkscape:window-x="0"
     inkscape:window-y="0"
     inkscape:window-maximized="1"
     inkscape:current-layer="svg7" />
  <!-- Generator: Sketch 52 (66869) - http://www.bohemiancoding.com/sketch -->
  <title
     id="title1">java</title>
  <desc
     id="desc1">Created with Sketch.</desc>
  <g
     id="Page-1"
     stroke="none"
     stroke-width="1"
     fill="none"
     fill-rule="evenodd">
    <g
       id="java">
      <path
         d="M60.9480327,197.898746 C60.9480327,197.898746 51.20388,203.577614 67.8826145,205.499268 C88.0884327,207.809387 98.4153927,207.478091 120.682342,203.254583 C120.682342,203.254583 126.536531,206.933278 134.712327,210.119505 C84.7957094,231.559386 21.7411855,208.877662 60.9480327,197.898746"
         id="Path"
         fill="#5382A1" />
      <path
         d="M54.8484873,169.921107 C54.8484873,169.921107 43.9194763,178.028561 60.6105818,179.758739 C82.1950694,181.990338 99.2408073,182.172861 128.736491,176.480906 C128.736491,176.480906 132.816142,180.625894 139.231145,182.89262 C78.878978,200.578731 11.65752,184.28737 54.8484873,169.921107"
         id="path1"
         fill="#5382A1" />
      <path
         d="M106.269545,122.461747 C118.568978,136.653063 103.037989,149.423458 103.037989,149.423458 C103.037989,149.423458 134.268349,133.266405 119.925655,113.033931 C106.530022,94.1658991 96.2573567,84.7911177 151.869403,52.4680596 C151.869403,52.4680596 64.5768327,74.3170664 106.269545,122.461747"
         id="path2"
         fill="#E76F00" />
      <path
         d="M172.288277,218.592693 C172.288277,218.592693 179.499142,224.547068 164.34684,229.153529 C135.534305,237.900846 44.4259963,240.54226 19.1164909,229.502044 C10.0183745,225.535446 27.07992,220.030835 32.4468327,218.875776 C38.0439818,217.659416 41.2425491,217.886021 41.2425491,217.886021 C31.12452,210.742837 -24.1562618,231.912033 13.1626473,237.974544 C114.936742,254.515238 198.687109,230.526238 172.288277,218.592693"
         id="path3"
         fill="#5382A1" />
      <path
         d="M65.6338582,140.93305 C65.6338582,140.93305 19.2903709,151.964312 49.2224727,155.97017 C61.8607309,157.66591 87.0547747,157.282268 110.522389,155.311711 C129.701422,153.690358 148.959491,150.243088 148.959491,150.243088 C148.959491,150.243088 142.196727,153.145545 137.304033,156.493632 C90.2430327,168.897602 -0.670090909,163.127128 25.5026291,150.439386 C47.6369345,139.716691 65.6338582,140.93305 65.6338582,140.93305"
         id="path4"
         fill="#5382A1" />
      <path
         d="M148.768429,187.503214 C196.608109,162.589891 174.488923,138.648416 159.050029,141.873903 C155.265905,142.663228 153.578651,143.347172 153.578651,143.347172 C153.578651,143.347172 154.983437,141.141746 157.666549,140.187118 C188.209637,129.425851 211.699243,171.926103 147.806935,188.758833 C147.806935,188.759522 148.547127,188.09624 148.768429,187.503214"
         id="path5"
         fill="#5382A1" />
      <path
         d="M119.925655,0.274817278 C119.925655,0.274817278 146.420018,26.8356661 94.796902,67.6787483 C53.4004037,100.441927 85.3572106,119.122614 94.77972,140.466067 C70.6158982,118.617061 52.8828873,99.3832953 64.7795782,81.4822896 C82.2411167,55.2052121 130.615495,42.465124 119.925655,0.274817278"
         id="path6"
         fill="#E76F00" />
      <path
         d="M70.3348037,255.012526 C116.254931,257.958374 186.770487,253.378086 188.44056,231.602778 C188.44056,231.602778 185.230309,239.857628 150.490047,246.413294 C111.296258,253.805121 62.9562437,252.942098 34.2852873,248.204772 C34.2859745,248.204083 40.1545963,253.072963 70.3348037,255.012526"
         id="path7"
         fill="#5382A1" />
    </g>
  </g>
  <path
     style="fill:#000000;stroke:#444444;stroke-width:0.313726"
     d="m 57.72549,162.9293 c -23.141003,-1.23238 -36.705882,-4.29262 -36.705882,-8.28087 0,-2.21949 8.431937,-6.47114 19.463223,-9.81398 6.772002,-2.05214 16.069273,-3.67935 20.78814,-3.63836 l 2.258441,0.0196 -4.705883,1.36197 c -11.54952,3.34264 -17.628586,5.97222 -19.404456,8.39365 -3.123599,4.25908 10.900853,6.53322 37.600535,6.09713 23.140232,-0.37795 43.701292,-2.1082 64.092142,-5.39347 2.6389,-0.42517 5.0389,-0.76945 5.33333,-0.76507 0.29442,0.004 -1.15881,0.89241 -3.22939,1.97342 -2.07059,1.081 -4.32942,2.3354 -5.01961,2.78756 -1.27323,0.83411 -5.94022,1.99774 -13.4902,3.36354 -9.83394,1.77896 -22.34913,3.10983 -35.607841,3.78652 -5.426268,0.27695 -26.81925,0.35082 -31.372549,0.10834 z"
     id="path8" />
  <path
     style="fill:#000000;stroke:#444444;stroke-width:0.313726"
     d="m 72.941176,190.10971 c -15.212448,-1.10991 -26.865465,-4.2432 -30.422085,-8.17996 -2.925092,-3.23772 -0.364917,-6.57438 7.718341,-10.05927 3.318766,-1.4308 3.795295,-1.49055 2.719824,-0.34107 -2.141061,2.28841 -2.331589,4.08108 -0.608003,5.72069 1.914618,1.82133 4.51881,2.38939 15.415453,3.36263 8.541333,0.76287 26.537073,0.75969 34.196074,-0.006 6.34739,-0.6346 16.74584,-2.1021 22.69036,-3.2022 l 4.11861,-0.76221 0.94846,0.89566 c 1.43518,1.35529 4.56339,3.38117 6.76204,4.37921 1.0801,0.4903 1.83744,0.96636 1.68297,1.05792 -0.15448,0.0916 -2.25734,0.67177 -4.67302,1.28938 -10.10749,2.58416 -20.13082,4.29782 -31.60576,5.40358 -5.987257,0.57695 -23.439169,0.84327 -28.943264,0.44168 z"
     id="path9" />
  <path
     style="fill:#000000;stroke:#444444;stroke-width:0.313726"
     d="m 82.795507,218.64265 c -16.699296,-0.95865 -30.637473,-5.42489 -33.4096,-10.7055 -1.581073,-3.01178 0.879736,-5.88056 7.196847,-8.38998 3.013715,-1.19718 3.280709,-1.19643 2.268664,0.006 -1.491776,1.77288 -0.842733,3.41821 1.780817,4.5144 4.789744,2.00128 25.357305,3.53574 36.308941,2.70886 4.807104,-0.36295 14.947754,-1.7347 20.686044,-2.79825 l 2.96054,-0.54872 3.00024,1.65903 c 1.65013,0.91247 4.64719,2.39697 6.66014,3.29891 2.01295,0.90193 3.60176,1.73397 3.53069,1.84897 -0.23814,0.38531 -8.08899,3.14474 -12.05334,4.23653 -8.34329,2.29775 -16.6268,3.62152 -26.196078,4.18632 -5.827806,0.34398 -6.462585,0.34314 -12.733905,-0.0169 z"
     id="path10" />
  <path
     style="fill:#000000;stroke:#444444;stroke-width:0.313726"
     d="M 65.882353,243.10925 C 48.266905,242.40309 23.991391,239.88834 11.40946,237.46627 2.8626823,235.82099 -0.72482381,233.129 1.0728768,229.70991 c 1.1129483,-2.11674 4.5580986,-4.67771 9.4116922,-6.99622 8.517994,-4.06896 20.95316,-6.84614 26.608843,-5.94265 3.563739,0.56932 3.806064,0.8293 1.007109,1.08052 -5.197305,0.46649 -13.415861,2.80819 -17.541008,4.99794 -2.430565,1.29021 -4.245788,3.01217 -4.245788,4.02763 0,2.0652 4.945412,4.17511 14.27451,6.09007 19.009406,3.90201 54.414218,5.01619 88.313725,2.77921 30.70551,-2.02622 51.12256,-6.26996 54.42673,-11.31277 0.71168,-1.08616 0.93343,-2.70509 0.52931,-3.86434 -0.47813,-1.37155 0.0608,-1.24284 1.71269,0.40903 1.18429,1.18428 1.37049,1.55 1.37049,2.69176 0,1.19168 -0.17695,1.497 -1.80393,3.11262 -2.10043,2.08579 -4.16832,3.30861 -8.80626,5.20746 -20.04443,8.20655 -60.73717,12.711 -100.448637,11.11908 z"
     id="path11" />
  <path
     style="fill:#000000;stroke:#444444;stroke-width:0.313726"
     d="m 83.294118,255.49907 c -14.852647,-0.63784 -24.498785,-1.46067 -32.630029,-2.78339 -5.383868,-0.8758 -11.265378,-2.32597 -13.330756,-3.28689 l -1.411764,-0.65683 1.568627,0.15309 c 0.862745,0.0842 3.898039,0.43587 6.745098,0.78149 14.225836,1.72698 28.355859,2.36046 47.215686,2.11678 14.68845,-0.18979 19.39581,-0.41364 31.21569,-1.48439 30.97101,-2.80564 56.48896,-9.44797 64.23529,-16.72046 2.31347,-2.17196 0.52269,2.07607 -2.04376,4.84815 -8.12222,8.77296 -30.29243,14.36578 -65.79938,16.59903 -5.26985,0.33145 -30.905057,0.64212 -35.764702,0.43342 z"
     id="path12" />
  <path
     style="fill:#000000;stroke:#444444;stroke-width:0.313726"
     d="m 148.70588,187.98962 c 0,-0.13513 1.29691,-0.94689 2.88202,-1.80393 6.88537,-3.72277 13.99218,-8.89431 18.15919,-13.21422 5.96227,-6.18103 8.34051,-11.24474 8.07989,-17.20356 -0.10911,-2.49478 -0.26929,-3.15332 -1.28959,-5.30177 -1.51334,-3.18668 -4.02159,-5.69783 -7.19608,-7.2044 -4.02209,-1.90884 -7.53532,-2.23769 -12.13245,-1.13565 -1.44885,0.34733 -2.69727,0.5685 -2.77428,0.4915 -0.077,-0.077 0.45979,-0.57449 1.19287,-1.10553 2.56497,-1.85806 8.07667,-3.01692 13.1336,-2.7614 8.74907,0.44208 15.87441,5.28499 18.47077,12.55412 0.66415,1.85943 0.8086,2.82429 0.8086,5.4011 0,3.67796 -0.76908,6.25766 -2.97481,9.97831 -1.7896,3.01872 -6.83474,8.05219 -10.5634,10.53897 -5.83631,3.89245 -13.78902,7.53822 -21.62576,9.91393 -3.86646,1.17212 -4.17057,1.23429 -4.17057,0.85253 z"
     id="path13" />
  <path
     style="fill:#000000;stroke:#444444;stroke-width:0.313726"
     d="m 106.37199,146.11765 c 3.03633,-3.75592 4.67939,-8.0245 4.67939,-12.15687 0,-4.37617 -1.35207,-7.56689 -5.19172,-12.25185 -6.284618,-7.66821 -9.657021,-14.47002 -10.491278,-21.15991 -1.937087,-15.533456 11.126948,-30.04443 37.000338,-41.098409 4.97845,-2.126957 16.52917,-6.21014 17.06361,-6.03199 0.16515,0.05505 -1.09545,0.930316 -2.80133,1.945041 -20.99113,12.486384 -33.23094,23.047437 -36.36694,31.379002 -2.23335,5.933465 -0.86181,11.51295 4.85912,19.767136 7.25307,10.46476 7.60913,11.13533 8.24206,15.52191 1.11558,7.73166 -4.65348,16.73278 -15.49694,24.17895 -1.49596,1.02728 -2.80127,1.86777 -2.90069,1.86777 -0.0994,0 0.53256,-0.88235 1.40438,-1.96078 z"
     id="path14" />
  <path
     style="fill:#000000;stroke:#444444;stroke-width:0.313726"
     d="M 87.790076,133.71963 C 75.212085,121.77347 68.374456,113.59206 64.525041,105.88235 59.526474,95.871096 60.13513,87.869095 66.541075,79.377534 70.990724,73.479194 75.848678,68.986344 89.568627,58.08064 102.76165,47.593782 108.44295,42.318858 112.85136,36.463291 c 7.5894,-10.080782 10.21085,-21.001016 7.92934,-33.0313809 -0.17056,-0.8993588 -0.31011,-1.7845328 -0.31011,-1.9670534 0,-0.59813678 1.59538,1.7806635 2.80486,4.1822021 2.31383,4.5943122 3.15592,8.2437662 3.15592,13.6770792 0,5.797649 -1.20543,10.603668 -4.24161,16.911156 C 117.29144,46.411263 108.83598,56.01093 94.431373,67.74998 80.672729,78.962598 74.574669,88.104304 74.122021,98.196078 c -0.368101,8.206802 2.000336,13.898052 11.598054,27.869602 5.009751,7.29277 8.193757,12.43339 8.018943,12.9467 -0.05058,0.14851 -2.727602,-2.23323 -5.948942,-5.29275 z"
     id="path15" />
  <metadata
     id="metadata15">
    <rdf:RDF>
      <cc:Work
         rdf:about="">
        <dc:title>java</dc:title>
      </cc:Work>
    </rdf:RDF>
  </metadata>
</svg>
