<?xml version="1.0" encoding="UTF-8" standalone="no"?>
<svg
   id="Layer_1"
   viewBox="0 0 400 400"
   width="2500"
   height="2500"
   version="1.1"
   sodipodi:docname="typescriptblack.svg"
   inkscape:version="1.3.2 (1:1.3.2+202311252150+091e20ef0f)"
   xmlns:inkscape="http://www.inkscape.org/namespaces/inkscape"
   xmlns:sodipodi="http://sodipodi.sourceforge.net/DTD/sodipodi-0.dtd"
   xmlns="http://www.w3.org/2000/svg"
   xmlns:svg="http://www.w3.org/2000/svg">
  <defs
     id="defs2" />
  <sodipodi:namedview
     id="namedview2"
     pagecolor="#ffffff"
     bordercolor="#000000"
     borderopacity="0.25"
     inkscape:showpageshadow="2"
     inkscape:pageopacity="0.0"
     inkscape:pagecheckerboard="0"
     inkscape:deskcolor="#d1d1d1"
     inkscape:zoom="0.3264"
     inkscape:cx="1250"
     inkscape:cy="1250"
     inkscape:window-width="1850"
     inkscape:window-height="1016"
     inkscape:window-x="0"
     inkscape:window-y="0"
     inkscape:window-maximized="1"
     inkscape:current-layer="Layer_1" />
  <style
     id="style1">.st0{fill:#007acc}.st1{fill:#fff}</style>
  <path
     class="st0"
     d="M0 200V0h400v400H0"
     id="path1" />
  <path
     class="st1"
     d="M87.7 200.7V217h52v148h36.9V217h52v-16c0-9 0-16.3-.4-16.5 0-.3-31.7-.4-70.2-.4l-70 .3v16.4l-.3-.1zM321.4 184c10.2 2.4 18 7 25 14.3 3.7 4 9.2 11 9.6 12.8 0 .6-17.3 12.3-27.8 18.8-.4.3-2-1.4-3.6-4-5.2-7.4-10.5-10.6-18.8-11.2-12-.8-20 5.5-20 16 0 3.2.6 5 1.8 7.6 2.7 5.5 7.7 8.8 23.2 15.6 28.6 12.3 41 20.4 48.5 32 8.5 13 10.4 33.4 4.7 48.7-6.4 16.7-22 28-44.3 31.7-7 1.2-23 1-30.5-.3-16-3-31.3-11-40.7-21.3-3.7-4-10.8-14.7-10.4-15.4l3.8-2.4 15-8.7 11.3-6.6 2.6 3.5c3.3 5.2 10.7 12.2 15 14.6 13 6.7 30.4 5.8 39-2 3.7-3.4 5.3-7 5.3-12 0-4.6-.7-6.7-3-10.2-3.2-4.4-9.6-8-27.6-16-20.7-8.8-29.5-14.4-37.7-23-4.7-5.2-9-13.3-11-20-1.5-5.8-2-20-.6-25.7 4.3-20 19.4-34 41-38 7-1.4 23.5-.8 30.4 1l-.2.2z"
     id="path2" />
  <path
     style="fill:#000000;stroke:#444444;stroke-width:3.06373"
     d="M 0,1250 V 0 H 1250 2500 V 1250 2500 H 1250 0 Z m 2026.6544,1035.67 c 140.1408,-33.6175 230.1602,-111.2797 258.7422,-223.224 25.8997,-101.4391 5.1918,-220.3901 -51.3319,-294.8635 -44.3617,-58.4491 -122.0759,-107.9575 -276.3441,-176.0469 -116.288,-51.3261 -141.3112,-68.0712 -159.6498,-106.8353 -7.3396,-15.5144 -8.8507,-22.6826 -8.8527,-41.9944 0,-36.317 10.5977,-59.1568 36.0326,-77.6286 20.7167,-15.0453 43.1051,-21.4877 74.2591,-21.3686 51.267,0.1961 88.2286,18.5812 119.4853,59.4331 9.2678,12.1128 19.0306,24.8686 21.6951,28.3462 3.5666,4.655 6.8693,5.8148 12.5197,4.3967 8.1063,-2.0346 146.9427,-93.4964 164.4698,-108.3485 l 10.2655,-8.6987 -16.1864,-24.2007 c -31.2672,-46.7484 -88.2065,-99.3564 -130.9869,-121.0229 -29.5756,-14.9788 -83.8575,-30.212 -121.3164,-34.0452 -56.5884,-5.7907 -130.6598,-2.3823 -167.1761,7.6927 -96.0872,26.5109 -163.148,78.3715 -202.1806,156.3538 -29.3069,58.5518 -37.8164,110.1319 -30.8318,186.8873 3.9672,43.5957 11.3192,69.997 29.6751,106.5648 43.7901,87.2364 105.5844,135.3447 264.6118,206.0067 145.9552,64.8534 182.2857,87.8393 200.2533,126.6981 9.2971,20.1067 9.1375,63.1012 -0.3114,83.9161 -14.218,31.3209 -52.1512,57.5845 -97.9119,67.7907 -56.8781,12.6859 -134.7096,0.081 -177.9124,-28.8128 -22.1133,-14.7894 -63.2339,-56.1857 -83.6615,-84.2225 -8.594,-11.7953 -16.6215,-21.4461 -17.8388,-21.4461 -2.4683,0 -176.3282,100.6342 -185.1206,107.1521 -5.3106,3.9368 -5.327,4.6285 -0.341,14.3621 11.6684,22.779 49.4124,74.7454 68.414,94.193 51.923,53.1421 130.3781,96.628 213.2416,118.195 45.2723,11.7831 65.6861,13.4658 150.1225,12.3746 65.645,-0.8484 80.5345,-1.9353 104.1667,-7.6043 z m -920.6495,-465.8171 v -462.6225 h 162.5327 162.5327 l -0.9212,-100.8518 c -0.5066,-55.4686 -2.0716,-101.9989 -3.4777,-103.4008 -2.6775,-2.6695 -873.61092,-3.6793 -876.15406,-1.0158 -0.80383,0.8418 -2.47148,47.3716 -3.70588,103.3995 l -2.24436,101.8689 h 162.76547 162.76547 v 460.58 c 0,253.3191 0.91912,461.4993 2.04249,462.6226 1.12335,1.1234 54.20239,2.0425 117.95343,2.0425 h 115.91094 z"
     id="path3"
     transform="scale(0.16)" />
</svg>
