<?xml version="1.0" encoding="UTF-8" standalone="no"?>
<svg
   height="235.452"
   width="261.728"
   viewBox="0 0 245.371 220.736"
   version="1.1"
   id="svg1"
   sodipodi:docname="itchio-textless-black-w.svg"
   inkscape:version="1.3 (1:1.3+202307231459+0e150ed6c4)"
   xmlns:inkscape="http://www.inkscape.org/namespaces/inkscape"
   xmlns:sodipodi="http://sodipodi.sourceforge.net/DTD/sodipodi-0.dtd"
   xmlns="http://www.w3.org/2000/svg"
   xmlns:svg="http://www.w3.org/2000/svg">
  <defs
     id="defs1" />
  <sodipodi:namedview
     id="namedview1"
     pagecolor="#ffffff"
     bordercolor="#000000"
     borderopacity="0.25"
     inkscape:showpageshadow="2"
     inkscape:pageopacity="0.0"
     inkscape:pagecheckerboard="0"
     inkscape:deskcolor="#d1d1d1"
     inkscape:zoom="3.4656746"
     inkscape:cx="130.99903"
     inkscape:cy="139.36681"
     inkscape:window-width="1850"
     inkscape:window-height="1016"
     inkscape:window-x="0"
     inkscape:window-y="0"
     inkscape:window-maximized="1"
     inkscape:current-layer="svg1" />
  <path
     d="M31.99 1.365C21.287 7.72.2 31.945 0 38.298v10.516C0 62.144 12.46 73.86 23.773 73.86c13.584 0 24.902-11.258 24.903-24.62 0 13.362 10.93 24.62 24.515 24.62 13.586 0 24.165-11.258 24.165-24.62 0 13.362 11.622 24.62 25.207 24.62h.246c13.586 0 25.208-11.258 25.208-24.62 0 13.362 10.58 24.62 24.164 24.62 13.585 0 24.515-11.258 24.515-24.62 0 13.362 11.32 24.62 24.903 24.62 11.313 0 23.773-11.714 23.773-25.046V38.298c-.2-6.354-21.287-30.58-31.988-36.933C180.118.197 157.056-.005 122.685 0c-34.37.003-81.228.54-90.697 1.365zm65.194 66.217a28.025 28.025 0 0 1-4.78 6.155c-5.128 5.014-12.157 8.122-19.906 8.122a28.482 28.482 0 0 1-19.948-8.126c-1.858-1.82-3.27-3.766-4.563-6.032l-.006.004c-1.292 2.27-3.092 4.215-4.954 6.037a28.5 28.5 0 0 1-19.948 8.12c-.934 0-1.906-.258-2.692-.528-1.092 11.372-1.553 22.24-1.716 30.164l-.002.045c-.02 4.024-.04 7.333-.06 11.93.21 23.86-2.363 77.334 10.52 90.473 19.964 4.655 56.7 6.775 93.555 6.788h.006c36.854-.013 73.59-2.133 93.554-6.788 12.883-13.14 10.31-66.614 10.52-90.474-.022-4.596-.04-7.905-.06-11.93l-.003-.045c-.162-7.926-.623-18.793-1.715-30.165-.786.27-1.757.528-2.692.528a28.5 28.5 0 0 1-19.948-8.12c-1.862-1.822-3.662-3.766-4.955-6.037l-.006-.004c-1.294 2.266-2.705 4.213-4.563 6.032a28.48 28.48 0 0 1-19.947 8.125c-7.748 0-14.778-3.11-19.906-8.123a28.025 28.025 0 0 1-4.78-6.155 27.99 27.99 0 0 1-4.736 6.155 28.49 28.49 0 0 1-19.95 8.124c-.27 0-.54-.012-.81-.02h-.007c-.27.008-.54.02-.813.02a28.49 28.49 0 0 1-19.95-8.123 27.992 27.992 0 0 1-4.736-6.155zm-20.486 26.49l-.002.01h.015c8.113.017 15.32 0 24.25 9.746 7.028-.737 14.372-1.105 21.722-1.094h.006c7.35-.01 14.694.357 21.723 1.094 8.93-9.747 16.137-9.73 24.25-9.746h.014l-.002-.01c3.833 0 19.166 0 29.85 30.007L210 165.244c8.504 30.624-2.723 31.373-16.727 31.4-20.768-.773-32.267-15.855-32.267-30.935-11.496 1.884-24.907 2.826-38.318 2.827h-.006c-13.412 0-26.823-.943-38.318-2.827 0 15.08-11.5 30.162-32.267 30.935-14.004-.027-25.23-.775-16.726-31.4L46.85 124.08C57.534 94.073 72.867 94.073 76.7 94.073zm45.985 23.582v.006c-.02.02-21.863 20.08-25.79 27.215l14.304-.573v12.474c0 .584 5.74.346 11.486.08h.006c5.744.266 11.485.504 11.485-.08v-12.474l14.304.573c-3.928-7.135-25.79-27.215-25.79-27.215v-.006l-.003.002z"
     color="#000"
     id="path1" />
  <path
     style="fill:#ffffff;stroke-width:0.288544"
     d="m 45.836516,209.04878 c -7.845608,-1.47963 -11.009073,-5.62485 -11.009167,-14.42578 -7.3e-5,-6.88874 0.463754,-8.93922 8.778809,-38.80918 6.96217,-25.01002 7.848268,-27.71598 11.210533,-34.23456 4.176457,-8.0971 8.573222,-13.45888 14.02865,-17.10769 5.289813,-3.53804 10.60228,-4.57324 19.304885,-3.76179 7.100347,0.66206 11.676376,2.7703 17.046474,7.85354 l 2.44653,2.31585 3.81507,-0.33348 c 8.61935,-0.75344 19.05311,-1.00629 27.31622,-0.66196 4.40219,0.18344 9.64488,0.48449 11.65041,0.669 l 3.64643,0.33548 2.32532,-2.2216 c 4.25924,-4.06925 8.88178,-6.58129 13.82707,-7.51408 3.91709,-0.73884 10.33175,-0.89776 13.54088,-0.33545 10.81373,1.89478 19.82389,11.41964 26.4089,27.9175 1.19605,2.99654 11.56413,39.33689 14.46182,50.68899 2.0957,8.21019 2.82836,15.95308 1.90151,20.09544 -1.14392,5.11247 -3.98474,7.90898 -9.46172,9.31413 -1.62044,0.41574 -3.20659,0.50119 -9.03483,0.48677 -6.96876,-0.0173 -7.11751,-0.0303 -10.45538,-0.91618 -8.18324,-2.17188 -14.61775,-6.36167 -19.28757,-12.55898 -3.67513,-4.87727 -6.32507,-12.24776 -6.32507,-17.59243 v -1.73546 l -0.93777,0.19093 c -2.17204,0.44224 -12.3204,1.61774 -17.62443,2.04147 -19.15345,1.53014 -44.95744,0.7901 -60.643158,-1.7392 -1.428293,-0.23031 -2.675202,-0.41927 -2.770912,-0.4199 -0.09571,-6.4e-4 -0.249712,1.1999 -0.342236,2.66787 -0.762966,12.10529 -9.291819,23.33021 -21.104039,27.77528 -4.791777,1.80319 -7.313145,2.21788 -14.15918,2.32874 -4.688338,0.0759 -6.924734,-0.006 -8.554049,-0.31327 z m 97.281364,-48.19855 v -6.76767 h 0.82141 c 0.45178,0 3.83871,0.14052 7.52651,0.31227 3.68781,0.17175 6.77806,0.23931 6.86724,0.15014 0.45471,-0.45472 -3.25038,-5.06942 -9.05575,-11.27901 -5.33883,-5.71054 -17.97415,-17.79746 -18.48953,-17.68703 -1.06835,0.22891 -17.82243,16.85008 -23.05995,22.87702 -2.06907,2.38093 -4.42902,5.5682 -4.42902,5.98169 0,0.28304 0.76954,0.26676 11.6139,-0.24562 l 3.67894,-0.17383 v 6.79985 6.79986 h 12.26313 12.26312 z"
     id="path2"
     transform="matrix(0.93750383,0,0,0.93750383,0,-5.7419572e-4)" />
</svg>
